<svg xmlns="http://www.w3.org/2000/svg" xmlns:xlink="http://www.w3.org/1999/xlink" width="45.311" height="46.674" viewBox="0 0 45.311 46.674">
  <defs>
    <clipPath id="clip-path">
      <rect id="Rectangle_6158" data-name="Rectangle 6158" width="45.311" height="46.674" fill="none"/>
    </clipPath>
  </defs>
  <g id="Group_14577" data-name="Group 14577" clip-path="url(#clip-path)">
    <path id="Path_3062" data-name="Path 3062" d="M45.475,23.663c0,12.793-10.068,23.164-22.488,23.164S.5,36.456.5,23.663,10.568.5,22.987.5,45.475,10.87,45.475,23.663" transform="translate(-0.332 -0.327)" fill="#1a1818"/>
    <ellipse id="Ellipse_35" data-name="Ellipse 35" cx="22.488" cy="23.164" rx="22.488" ry="23.164" transform="translate(0.168 0.173)" fill="none" stroke="#fff" stroke-miterlimit="10" stroke-width="1"/>
    <path id="Path_3063" data-name="Path 3063" d="M24.942,21.947c-.263-.038-.749-.337-.67-.669a5.307,5.307,0,0,1,2.267-.81c.282-.018.579.017.863,0,.13-.007.206-.084.356-.075a2.4,2.4,0,0,1,1.03.547,3.751,3.751,0,0,1,1.708,2.336,7.327,7.327,0,0,1-.479,2,34.338,34.338,0,0,0-.953,7.8c.034,1.26.3,2.538.408,3.8.057.695.086,1.394.082,2.09a4.733,4.733,0,0,0,1.939-.6,10.781,10.781,0,0,0,1.689-1.722c.445-.515.854-1.062,1.291-1.585l-.02-.063a6.9,6.9,0,0,1-2.222.643c-.78-.484-1.569-1.4-.555-2.153a35.048,35.048,0,0,0,4.573-2.045,3.482,3.482,0,0,0,1.135-1.365c-.823-.1-1.538-.066-1.886-.97a1.691,1.691,0,0,1,.09-1.725c.679-.9,2.032-.579,2.988-.935.043-.016.079-.021.093-.074.121-1.057.231-2.116.361-3.172a16.6,16.6,0,0,0,.278-1.941,11.408,11.408,0,0,0-.286-1.483c-.013-.044-.013-.079-.059-.107l-.937.8c-.51-.464-.76-.7-.5-1.432a5.8,5.8,0,0,1,1.024-1.394c.287-.313.551-.717,1.014-.579a5.38,5.38,0,0,1,2.222,1.554,2.732,2.732,0,0,1,.27,2.656l.64-.623a9.3,9.3,0,0,1,3.981,1.416c.373.261,1,.791.737,1.307a52.368,52.368,0,0,1-4.086,3.369c.24.218.491.424.738.633.106.09.2.236.307.317.178.136.745.3.388.611-.334.288-.933.475-1.269.783.918.335,1.842.684,2.733,1.091a7.632,7.632,0,0,1,1.57.873A4.613,4.613,0,0,1,46.6,31.8a12.736,12.736,0,0,1-2.753.71,51.258,51.258,0,0,0-5.021,1.33c-1.9,1.67-3.425,4.192-5.451,5.659a5,5,0,0,1-3.661.937,40.086,40.086,0,0,0,.416,5.038,7.364,7.364,0,0,1,.251,3.228,1.181,1.181,0,0,1-1.761.776c-1.78-.963-3.357-4.484-4.352-6.285-.626-1.134-1.282-2.25-1.893-3.391-.1-.017-.063.009-.085.059-.185.421-.288.982-.457,1.429a26.64,26.64,0,0,1-1.965,3.761,4.966,4.966,0,0,1-1.717,1.609c-.563.356-1.446.945-2.044.379,2.307-2.828,3.025-6.727,3.518-10.3.351-2.553.722-5.327.907-7.89a18.307,18.307,0,0,0-.741-5.274c-.124-.511-.4-1.23-.478-1.7-.022-.144-.063-.412.131-.392a9.824,9.824,0,0,1,.871.584c1.8,1.077,3.256,1.745,3.789,4.077.083.362.094.734.185,1.086l2.511.161.332-5.443Zm16.622,2.618a16.066,16.066,0,0,0,2.009-2.048c.059-.048.036-.04,0-.086a2.041,2.041,0,0,0-.329-.211,2.541,2.541,0,0,0-1.392-.4,12.307,12.307,0,0,0-.289,2.742M39.8,31.531a17.043,17.043,0,0,0,2.991-.824,4.388,4.388,0,0,0,.617-.294c.042-.045.04-.056.034-.116-.028-.26-.27-.631-.281-.919a22.226,22.226,0,0,0-2.9,1.15ZM26.643,29.716l-2.372.175-.334,3.457a10.932,10.932,0,0,0,2.583,0Zm-.164,5.954a17.732,17.732,0,0,1-3.029.3l-.62,2.3c.8,1.492,1.708,3.814,3.423,4.371a1.255,1.255,0,0,0,.391.083l0-3.739a29.634,29.634,0,0,1-.166-3.313" transform="translate(-10.708 -11.15)" fill="#fff"/>
    <path id="Path_3064" data-name="Path 3064" d="M84.153,73.973c-.2.226-.831.2-1.114.181a13.152,13.152,0,0,1-6.412-2.431c-.546-.376-.95-.863-1.46-1.283a8.95,8.95,0,0,0-3.544-1.859c-.026.111.035.074.077.109.5.411.992.555,1.254,1.2a4.679,4.679,0,0,1,.192.668c1.819.353,3.67,1.456,3.956,3.5a3.273,3.273,0,0,1-.314,1.381,12.684,12.684,0,0,1-4.473,6.2c-.847.652-2.357,1.752-3.45,1.577-1.233-.2-2.544-2.908-2.9-4.022a5.332,5.332,0,0,1-.2-1.373c-.467.122-.912.307-1.386.409-.794.172-1.883.328-2.426-.43.331-.166,1-.178,1.292-.357a11.589,11.589,0,0,0,.921-.91c.272-.253.572-.48.842-.737l1.864-2.092-1.4-.2-1.058-.324a10.644,10.644,0,0,0,4.218-1.8,2.231,2.231,0,0,0,1.133-1.367c.077-.506-.532-1.155-.76-1.586a2.279,2.279,0,0,1,.636-.191c.2,0,.479.084.693.088a5.559,5.559,0,0,0,.843-.087l-.861-.675c.079-.008.148.038.226.042.9.049,1.936.017,2.818.137a46.074,46.074,0,0,1,4.648,1,11.46,11.46,0,0,1,5.345,3.235c.323.35,1.212,1.53.806,1.994M72.185,72.053c-1.72,1.707-3.441,3.411-5.237,5.035-.214.628.536,1.31,1.088,1.375a7.352,7.352,0,0,0,1.78-.193c1.065-1.131,3.823-3.566,3.975-5.152.089-.927-.907-1.113-1.606-1.064" transform="translate(-41.178 -44.231)" fill="#fff"/>
    <path id="Path_3065" data-name="Path 3065" d="M66.786,29.665a.726.726,0,0,1,.446.078A10.874,10.874,0,0,1,68.5,31.01c.18.212.328.45.5.669.651,0,1.357-.261,2-.29.278-.013.748-.011.585.391-.411,1.016-2.149,3.192-3.186,3.474a1.662,1.662,0,0,1-1.837-.894c-1.173-1.65-.021-2.388.152-4.094.014-.138-.042-.562.072-.6" transform="translate(-43.898 -19.411)" fill="#fff"/>
  </g>
</svg>
