<svg xmlns="http://www.w3.org/2000/svg" xmlns:xlink="http://www.w3.org/1999/xlink" width="233.25" height="88.13" viewBox="0 0 233.25 88.13">
  <defs>
    <clipPath id="clip-path">
      <rect id="Rectangle_6228" data-name="Rectangle 6228" width="194.35" height="57.72" transform="translate(0 0)" fill="none"/>
    </clipPath>
  </defs>
  <g id="Group_14794" data-name="Group 14794" transform="translate(-442.75 -701.14)">
    <g id="Group_14801" data-name="Group 14801">
      <g id="Group_14781" data-name="Group 14781" transform="translate(454.354 651.034)">
        <g id="Group_14780" data-name="Group 14780" transform="translate(27.297 50.106)" clip-path="url(#clip-path)">
          <path id="Path_3365" data-name="Path 3365" d="M0,58.829a96.665,96.665,0,0,0,8.446-8.937c1.225-1.439,8.221-9.925,8.421-10.987.06-.318-.177-.6-.154-.91.064-.862,1.714-1.742,2.305-2.309,3.547-3.4,9.223-14.947,10.949-19.784.925-2.591,2.2-5.595-1.993-3.913A25.539,25.539,0,0,0,19.494,18.3c-.493.608-1.206,2.227-1.814,2.422-.832.267-1.521-.189-1.317-1.128a27.492,27.492,0,0,1,2.646-3.316C20.961,14.307,26.579,10,29.286,9.839a2.643,2.643,0,0,1,2.9,1.916c.517,2.141-1.432,6.375-2.326,8.459a91.68,91.68,0,0,1-6.619,12.4l.284.093c9.169-6.349,18-12.661,25.939-20.545,1.436-1.427,3.45-4.183,4.889-5.29.8-.616,1.292-.679,2.026.1l-.208,1.143a168.726,168.726,0,0,1-28.9,23.348l6.82-1.631c5.788-.238,4.231,3.648,2.5,7.108C34.256,41.61,25.689,54.23,25.922,58.726c.23,4.442,7.383,2.078,9.8,1.157,6.121-2.33,16.45-8.6,22.765-8.546,1.2.009,2.08,1.193.725,1.5a60.876,60.876,0,0,0-7.4,1.626c-5.949,2.021-17.318,8.9-22.9,8.4-3.156-.284-4.65-2.356-4.3-5.451.774-6.928,8.869-16.211,11.539-22.843,1.231-3.059.565-3.5-2.6-3.181-4.453.443-11.385,3.6-14.221,7.1C13.129,46.119,8.164,53.476.771,60.273c-.237.218-.395.481-.771.477Z" transform="translate(0 -5.166)" fill="#fff"/>
          <path id="Path_3366" data-name="Path 3366" d="M383.776,48.092c2.929-2.53,5.575-5.41,8.662-7.759,1.091-.83,3.991-2.95,5.265-3.011,2.692-.13,1.035,3.873,2.058,4.3,2.531,1.068,8.672-2.369,11.239-3.284.891-.318,1.813-.857,2.433.162,1.294,2.127-2.753,4.467-.08,5.652,2.921,1.295,9.291-.046,12.584-.289a109.393,109.393,0,0,1,11.147-.393c9.768.291,19.165,2.887,29,2.7.774-.014,4.117-.757,4.085.5a.645.645,0,0,1-.483.6,22.744,22.744,0,0,1-2.267.229c-12.2.763-23.911-3-36.117-2.5-4.707.192-15.132,2.345-18.985.369a2.688,2.688,0,0,1-1.619-2.712c.146-.988,1.354-1.767,1.307-2.834-3.079.984-9.93,4.808-12.936,3.043a2.946,2.946,0,0,1-1.256-2.586c-.035-.381.445-1.323-.306-1.433-1.312-.024-5.386,3.288-6.529,4.245a72.21,72.21,0,0,0-10.366,10.761c-1.233.718-2.106-.751-1.147-1.723,7.913-12.069,16.76-23.533,24.823-35.489.241-.358.825-.966.708-1.4-2.72,2.8-5.335,5.683-7.88,8.639-4.093,4.754-7.9,10.243-12.1,14.8-1.676,1.821-6.042,6.435-8.735,4.7-1.355-.875-.859-2.228-.773-3.45.021-.3.03-.329-.288-.285-2.344,1.464-5.677,4.261-8.606,3.605a1.459,1.459,0,0,1-1-.917c-1.666.88-3.986,2.761-5.853,1.431-1.113-.793-.944-2.635-.2-3.642l-.284-.093c-3.713,3.558-7.508,8-11.752,10.915-1.642,1.127-4.708,2.873-5.841.143-1.1-2.645,1.164-7.837,2.286-10.42,4.286-9.863,10.33-18.131,15.864-27.162,1.051-1.716,2.088-3.032-.942-2.862-4.233.239-9.291,3.275-12.106,6.333-.345.374-.543.929-.861,1.25-1.021,1.03-1.946.042-1.008-1.391,1.814-2.774,7.434-6.178,10.613-7.058,1.908-.529,7.318-1.467,6.91,1.9a13.174,13.174,0,0,1-1.186,2.477c-1.605,2.814-3.861,5.622-5.612,8.41-3.454,5.5-12.207,19.877-12.765,25.842-.362,3.869,1.609,2.858,3.877,1.381,5.354-3.488,11.137-10.434,15.592-15.14,5.986-6.324,12.053-12.594,17.378-19.5.678-.879,3.83-5.673,4.372-5.823s.93.245,1.177.688c.156.58-.355,1.116-.66,1.572a137.389,137.389,0,0,1-10.545,12.889c-3.527,3.989-10.764,10.47-12.88,14.971-1.491,3.171-.912,4.173,2.407,2.6,2.322-1.1,2.424-2.549,3.848-4.411,1.178-1.54,4.878-5.218,6.82-5.3,1.19-.052,1.416.966,1.152,1.944a11.183,11.183,0,0,1-2.316,3.06c-1.546,1.445-4.785,2.92-5.914,4.224-.187.216-.148.316-.13.583a14.834,14.834,0,0,0,5.381-2.012c2.94-1.525,5.219-3.584,7.934-5.127.912-.518,4.366-2.376,5.141-1.426l.183.585a.709.709,0,0,1-.184.411c-.218.274-4.034,1.7-4.881,2.225-1.265.79-4.19,3.22-3.976,4.853.145,1.1,1.4.59,2.054.332,4.393-1.725,12.4-13,15.819-17.028,4.223-4.984,8.754-9.516,13.155-14.312,2.482-2.7,4.847-6.005,7.388-8.555.681-.683,3.474-3.436,3.945-1.265.226,1.043-2.72,3.132-3.465,3.858a66.2,66.2,0,0,0-4.969,5.211Zm-9.8-14.021c-2.34,1.107-4.076,3.1-5.762,4.991a8.6,8.6,0,0,0,1.981-1.186c.433-.306,4.277-3.3,3.78-3.805" transform="translate(-275.824 0.001)" fill="#fff"/>
          <path id="Path_3367" data-name="Path 3367" d="M908.749,46.469l1.547-.111c1.134,3.273-4.924,1.531-5.2,4.529.962-.184,4.7-1.567,5.329-.914,1.454,1.513-2.212,1.946-3.024,2.162a9.757,9.757,0,0,0,3.837,3.846c.891.511,2.937,1.152,3.515,1.619a.88.88,0,0,1,.3.833c-.888,2.1-4.318-1.167-5.169-.55-.338.5-.109,1.122-.228,1.694-.259,1.249-1.714,5.907-2.836,6.383-2.286.969-1.919-2.984-2.972-2.974-.963,1.382-1.925,3.351-3.94,3.074-.411-.415,1.4-2.345,1.695-2.818a21.072,21.072,0,0,0,1.568-3.235c.13-.4.05-.209-.189-.192-.7.048-2.064.431-1.923-.669l-1.406.559c-1.669-.539,1.562-4.128,1.6-4.9.044-.795-2.11-1.812-1.4-3.3.748-1.565,1.817,1.243,2.449,1.1l1.058-2.212c-2.082-.03-2.435-2.19-2.28-3.913,1.294-.484,1.751.057,1.911,1.309l.769-.07a6.276,6.276,0,0,0,.354-2.879c-.043-.446-.764-1.811.458-1.8,1.784.012,1.414,2.687,1.574,3.8a18.272,18.272,0,0,0,2.885-3.662c.189-.5-.263-1.038-.075-1.591.237-.7,1.466-.166,1.784.275,1.223,1.693-2.381,4.266-2,4.594m-2.735,8.5c.384.378-.186,1.1.43,1.4l1.729-.194c.312-.2.026-.448-.112-.658A15.146,15.146,0,0,0,905.7,52.9c-.682-.152-1.639.887-1.76,1.537l.4.192-.007.384c-1.494.53-2.07,1.809-2.874,3.077.237.357.291.22.576.2a7.922,7.922,0,0,0,1.716-.4c.883-.588.318-3.042,1.456-3.163a1.327,1.327,0,0,1,.813.241m2.157,3.219c-.693.018-2.428.366-2.748,1.01a17.264,17.264,0,0,0-.718,2.729c.034.195.382.032.523.152.391.333.772,1.623,1.38.787.4-.549,1.882-4.347,1.563-4.677" transform="translate(-726.463 -33.336)" fill="#fff"/>
          <path id="Path_3368" data-name="Path 3368" d="M852.365,72.081a18.548,18.548,0,0,0-3.658,1.43c-.393.4-1.308,3.431-1.685,4.269-.409.907-.9,1.8-1.378,2.668-2.734.324-.291-3.119.2-4.425a41.162,41.162,0,0,0,1.856-6.6c.544-2.87,1.029-5.656.062-8.482.606-.211,1.038.02,1.689-.13,1.653-.381,2.849-1.923,4.548-1.6,1.082.207.909,1.533.876,2.4-.06,1.577-.475,3.379-.582,4.988-.215,3.259-.075,6.775-.389,9.983-.1,1.053-.479,5.3-2.291,3.832-1.337-1.085-2.051-4.869.085-2.2.537.012.779-5.489.671-6.142m.384-10.372L850.1,62.7,849.91,65.7l.245.425,2.372-1.177Zm-.384,5.57-2.4.769L849.1,71.5c.641-.284,2.753-.925,3.082-1.478.392-.657.087-1.974.18-2.747" transform="translate(-682.182 -47.806)" fill="#fff"/>
          <path id="Path_3369" data-name="Path 3369" d="M738.841,133.473c1.45-.222,1.738,2.192.131,2.278a1.153,1.153,0,0,1-.131-2.278" transform="translate(-596.177 -107.824)" fill="#fff"/>
        </g>
      </g>
      <path id="Path_3384" data-name="Path 3384" d="M13.269-19.763,10.327-10.84,13.55,0H8.24L6.165-8.472V0H1.025V-19.763H6.165v7.678l2.283-7.678ZM19.7-9.924H15.075v-1.086a7.663,7.663,0,0,1,.433-2.9,4.022,4.022,0,0,1,1.74-1.8,6.547,6.547,0,0,1,3.394-.781,6.6,6.6,0,0,1,3.772.885,3.449,3.449,0,0,1,1.526,2.173,34.043,34.043,0,0,1,.256,5.3V0H21.4V-1.44a3.2,3.2,0,0,1-1.166,1.3,3.22,3.22,0,0,1-1.7.433,4.166,4.166,0,0,1-2.374-.726q-1.08-.726-1.08-3.18V-4.944a3.9,3.9,0,0,1,.574-2.478A8.084,8.084,0,0,1,18.493-8.96a8.119,8.119,0,0,0,2.6-1.282,3.406,3.406,0,0,0,.171-1.343,4.525,4.525,0,0,0-.189-1.654.649.649,0,0,0-.629-.385q-.5,0-.623.323a6.572,6.572,0,0,0-.122,1.678ZM21.264-7.7A3.657,3.657,0,0,0,19.89-6.25,5.769,5.769,0,0,0,19.7-4.565a4.907,4.907,0,0,0,.165,1.624.644.644,0,0,0,.653.366.6.6,0,0,0,.6-.287,4.634,4.634,0,0,0,.14-1.508ZM34.092-18.359v2.551h1.331v2.563H34.092v8.667A4.663,4.663,0,0,0,34.257-2.8q.165.183,1.373.183V0h-1.99a14.224,14.224,0,0,1-2.4-.14,2.564,2.564,0,0,1-1.27-.647,2.15,2.15,0,0,1-.684-1.16,20.559,20.559,0,0,1-.134-3.07v-8.228H28.086v-2.563h1.062v-2.551ZM47.58-11.023H43.21V-11.9a4.68,4.68,0,0,0-.128-1.422q-.128-.3-.641-.3a.731.731,0,0,0-.623.275,1.358,1.358,0,0,0-.208.824,4.164,4.164,0,0,0,.1,1.093,1.729,1.729,0,0,0,.623.763,13.542,13.542,0,0,0,2.13,1.208,7.754,7.754,0,0,1,2.82,1.978,4.567,4.567,0,0,1,.671,2.7A6.794,6.794,0,0,1,47.446-1.8,3.408,3.408,0,0,1,45.731-.25a7.01,7.01,0,0,1-2.9.543,7.983,7.983,0,0,1-3.217-.586A3.513,3.513,0,0,1,37.778-1.88a7.045,7.045,0,0,1-.5-3.027v-.781h4.37v1.025a5.394,5.394,0,0,0,.165,1.7.639.639,0,0,0,.653.391.885.885,0,0,0,.732-.262,1.961,1.961,0,0,0,.208-1.1A2.457,2.457,0,0,0,43.137-5.4a22.739,22.739,0,0,0-2.869-1.733,6.353,6.353,0,0,1-2.649-2.216,5.424,5.424,0,0,1-.476-2.362,6.116,6.116,0,0,1,.513-2.863,3.329,3.329,0,0,1,1.74-1.422,7.507,7.507,0,0,1,2.85-.5,8.086,8.086,0,0,1,2.74.409A4.208,4.208,0,0,1,46.719-15a2.9,2.9,0,0,1,.732,1.245,9.035,9.035,0,0,1,.128,1.794ZM61.568-16.2V0H56.551l.085-1.343A3.431,3.431,0,0,1,55.373-.116a3.553,3.553,0,0,1-1.727.409A3.89,3.89,0,0,1,51.8-.1a2.54,2.54,0,0,1-1.08-1.038,3.8,3.8,0,0,1-.433-1.349q-.085-.7-.085-2.789V-16.2h4.932V-5.176a11.493,11.493,0,0,0,.116,2.246q.116.354.629.354.549,0,.653-.366a14.041,14.041,0,0,0,.1-2.356V-16.2Zm13.1,0L73.25-4.48q-.33,2.783-.555,3.8A4.062,4.062,0,0,1,71.943.989a3.033,3.033,0,0,1-1.459.97,10.3,10.3,0,0,1-2.985.311H64.509V-.317a5.684,5.684,0,0,0,1.477-.116.49.49,0,0,0,.33-.519q0-.2-.305-1.7l-2.7-13.55h4.48L69.4-5.273,70.186-16.2Zm6.286,6.274H76.325v-1.086a7.663,7.663,0,0,1,.433-2.9,4.022,4.022,0,0,1,1.74-1.8,6.547,6.547,0,0,1,3.394-.781,6.6,6.6,0,0,1,3.772.885,3.449,3.449,0,0,1,1.526,2.173,34.043,34.043,0,0,1,.256,5.3V0h-4.8V-1.44a3.2,3.2,0,0,1-1.166,1.3,3.22,3.22,0,0,1-1.7.433,4.166,4.166,0,0,1-2.374-.726q-1.08-.726-1.08-3.18V-4.944A3.9,3.9,0,0,1,76.9-7.422,8.084,8.084,0,0,1,79.743-8.96a8.119,8.119,0,0,0,2.6-1.282,3.406,3.406,0,0,0,.171-1.343,4.525,4.525,0,0,0-.189-1.654.649.649,0,0,0-.629-.385q-.5,0-.623.323a6.572,6.572,0,0,0-.122,1.678ZM82.514-7.7A3.657,3.657,0,0,0,81.14-6.25a5.769,5.769,0,0,0-.189,1.685,4.907,4.907,0,0,0,.165,1.624.644.644,0,0,0,.653.366.6.6,0,0,0,.6-.287,4.634,4.634,0,0,0,.14-1.508Zm24.864-12.061V-6.555a22.921,22.921,0,0,1-.146,3.156,4.283,4.283,0,0,1-.867,1.868,4.5,4.5,0,0,1-1.9,1.453,7.144,7.144,0,0,1-2.777.494,7.812,7.812,0,0,1-3.125-.586A4.7,4.7,0,0,1,96.538-1.7a4.226,4.226,0,0,1-.793-1.984q-.122-1.044-.122-4.388V-19.763h5.139V-4.944a5.845,5.845,0,0,0,.14,1.654.55.55,0,0,0,.568.36.594.594,0,0,0,.629-.4,7.387,7.387,0,0,0,.14-1.874V-19.763ZM121.39-7.812h-6.384v3.5a3.889,3.889,0,0,0,.159,1.416.617.617,0,0,0,.61.317A.74.74,0,0,0,116.526-3a4.607,4.607,0,0,0,.189-1.63V-6.763h4.675v1.2a10.714,10.714,0,0,1-.189,2.307,4.7,4.7,0,0,1-.885,1.721,4.309,4.309,0,0,1-1.764,1.373,6.828,6.828,0,0,1-2.679.458,7.782,7.782,0,0,1-2.759-.452A4.416,4.416,0,0,1,111.252-1.4a4.478,4.478,0,0,1-.922-1.733,11.191,11.191,0,0,1-.256-2.753v-4.724a8.044,8.044,0,0,1,.574-3.351,3.94,3.94,0,0,1,1.88-1.88,6.628,6.628,0,0,1,3-.653,6.716,6.716,0,0,1,3.424.787,4.331,4.331,0,0,1,1.892,2.087,9.785,9.785,0,0,1,.543,3.656Zm-4.944-2.637v-1.184a5.968,5.968,0,0,0-.134-1.624.531.531,0,0,0-.549-.366q-.513,0-.635.311a6.482,6.482,0,0,0-.122,1.678v1.184Zm18.456.366h-4.651v-1.868a3.664,3.664,0,0,0-.159-1.324.586.586,0,0,0-.586-.348.574.574,0,0,0-.574.305,3.91,3.91,0,0,0-.146,1.367v7.642a2.981,2.981,0,0,0,.22,1.3.7.7,0,0,0,.647.433.666.666,0,0,0,.677-.452,5.438,5.438,0,0,0,.177-1.709V-6.665H134.9a25.436,25.436,0,0,1-.14,2.911,4.667,4.667,0,0,1-.818,1.99,4.368,4.368,0,0,1-1.8,1.538A6.474,6.474,0,0,1,129.4.293a6.545,6.545,0,0,1-3.308-.714,3.933,3.933,0,0,1-1.727-2,10.37,10.37,0,0,1-.507-3.656v-4.6a8.907,8.907,0,0,1,.415-3.113,4.035,4.035,0,0,1,1.77-1.874,6.23,6.23,0,0,1,3.3-.824,6.307,6.307,0,0,1,3.3.818,4.013,4.013,0,0,1,1.819,2.063A10.781,10.781,0,0,1,134.9-10.083Zm7.4-9.68v4.443a4.427,4.427,0,0,1,1.373-.879,4.248,4.248,0,0,1,1.581-.293,3.653,3.653,0,0,1,2.2.659,2.642,2.642,0,0,1,1.111,1.52,16.185,16.185,0,0,1,.2,3.143V0h-4.932V-11.4a7.094,7.094,0,0,0-.14-1.819.594.594,0,0,0-.629-.4.6.6,0,0,0-.61.415,5.494,5.494,0,0,0-.159,1.648V0h-4.932V-19.763Zm14.245,0v2.576h-5.078v-2.576Zm0,3.564V0h-5.078V-16.2Z" transform="translate(491 787)" fill="#fff"/>
      <path id="Path_3383" data-name="Path 3383" d="M0,0H24" transform="translate(443.5 729.5)" fill="none" stroke="#fff" stroke-linecap="round" stroke-width="1.5"/>
    </g>
  </g>
</svg>
