<svg id="Group_14803" data-name="Group 14803" xmlns="http://www.w3.org/2000/svg" xmlns:xlink="http://www.w3.org/1999/xlink" width="756.438" height="176.908" viewBox="0 0 756.438 176.908">
  <defs>
    <style>
      .cls-1 {
        fill: none;
      }

      .cls-2 {
        clip-path: url(#clip-path);
      }

      .cls-3 {
        fill: #fff;
      }
    </style>
    <clipPath id="clip-path">
      <rect id="Rectangle_6238" data-name="Rectangle 6238" class="cls-1" width="756.438" height="176.908"/>
    </clipPath>
  </defs>
  <g id="Group_14802" data-name="Group 14802" class="cls-2">
    <path id="Path_3383" data-name="Path 3383" class="cls-3" d="M479.034,132.709A98.928,98.928,0,0,1,468.8,158.187a131.407,131.407,0,0,1-8.266,12.575,20.557,20.557,0,0,1-4.769,4.733l-17,.011a31.876,31.876,0,0,1-16.412-10.826c-3.652-4.7-6.141-10.19-6.3-16.189-.118-4.541.043-8.836.156-13.41a141.259,141.259,0,0,1,2.508-23.773l1.465-7.5a1.6,1.6,0,0,1,1.142-1.272l9.824-3.062a7.2,7.2,0,0,0,.483-1.64,1.462,1.462,0,0,1,1.188-1.857l9.628-2.459.188,11.951c.024,1.476,0,2.833-.1,4.3a21.531,21.531,0,0,0-2.959,8.414c-.548,3.023-1,5.875-1.255,8.968-.677,8.154-1.289,16.148-1.5,24.364-.015.58.4,7.561.93,7.559,1.6-.007,5.471-3.782,6.7-5.323a210.091,210.091,0,0,0,18.984-28.134l3.855-6.843,4.643-8.538,10.874-4.782a127.56,127.56,0,0,1-3.776,27.258" transform="translate(-53.115 -11.939)"/>
    <path id="Path_3384" data-name="Path 3384" class="cls-3" d="M143.9,143.971a44.861,44.861,0,0,0,4.334,5.494c4.3,4.222,8.961,7.792,13.55,11.673l5.444,4.6-7.822,6.636c-.666-.979-1.379-1.135-2.185-.7l-6.093,3.284a2.776,2.776,0,0,1-2.354.186l-3.191-1.454a39.953,39.953,0,0,1-10.225-6.172l-11.039-9.749a2.529,2.529,0,0,0-1.153-.461,1.415,1.415,0,0,0-.94.658L114.453,170.9l-6.032-9.33a3.229,3.229,0,0,1-.373-1.791c1.16-3.987,2.222-7.854,3.6-11.759.816-2.306,1.946-4.414,2.265-6.9.489-3.814-3.862-5.723-1.635-10.394,2.606-5.466,5.723-7.694,7.8-13.288l9-24.307a2.408,2.408,0,0,0-.634-2.391c1.158-.645,6.548.684,8.086.976l4.054,3.829a29.507,29.507,0,0,1,2.695,3.3,7.525,7.525,0,0,1,1.752,5.591c-.573,5.47-2.829,11.15-4.984,16.261l-4.662,11.059a1.993,1.993,0,0,0,.061,1.649c2.657,4.32,20.808-16.676,22.882-19.415l2.851-3.765a2.169,2.169,0,0,0,.341-.944c-.024-.729-1.22-.9-1.328-1.784a1.873,1.873,0,0,1,.426-1.028,21.952,21.952,0,0,1,8.853-7.311c4.347-1.812,4.159-.925,8.339,1.783a1.555,1.555,0,0,1,.315,2.039,69.1,69.1,0,0,1-9.823,14.839c-3.674,4.341-7.6,8.167-11.547,12.247l-11.641,12.024c-.415.428-1.628,1.079-1.217,1.888" transform="translate(-13.795 -11.562)"/>
    <path id="Path_3385" data-name="Path 3385" class="cls-3" d="M385.251,167.382a82.059,82.059,0,0,1-22.12,6.775,15.111,15.111,0,0,1-10.7-2.038c-3.208-2.04-4.855-3.9-7.487-6.614-.232-.239-.112-1.11.073-1.386.62-.929,2.164.7,5.3.59a22.348,22.348,0,0,0,7.139-1.617c3.232-1.217,6.287-2.451,9.407-3.978,1.123-.55,6.05-3.284,6.228-4.143.147-.713-4.655-2.209-5.522-2.5-6.05-2.06-13.943-5.37-18.711-9.539a15.983,15.983,0,0,1-5.533-11.951c1.178-6.949,2.428-14.851,7.164-20.281a60.007,60.007,0,0,1,8.53-7.837,31.407,31.407,0,0,1,9.341-5.114c5.629-1.922,11.11-3.925,16.941-5.084l6.971-1.387a1.209,1.209,0,0,1,1.292.668l2.69,5.215a11.909,11.909,0,0,0,6.119,5.5l-4.581,21.28a4.132,4.132,0,0,1-2.087-.493l-.907-5.074a21.824,21.824,0,0,0-1.172-4.6c-.721-1.759-6.661.343-8.088.888A62.78,62.78,0,0,0,367.444,125.2a12.734,12.734,0,0,0-3.8,4.636c-1.206,2.823.392,5.428,2.934,6.723l8.544,4.35,10.472,4.025a25.507,25.507,0,0,1,3.625,1.862,7.1,7.1,0,0,1,3.1,3.582,24.743,24.743,0,0,1,1.94,8.877c.018,3.29-6.179,6.8-9.005,8.132" transform="translate(-43.834 -11.651)"/>
    <path id="Path_3386" data-name="Path 3386" class="cls-3" d="M594.364,129.02a165.466,165.466,0,0,1-9.657,14.267L573.4,158.329c-1.917,2.549-3.815,4.889-5.914,7.271l-8.856,10.047-9.808,10.279L538.784,180.7A157.761,157.761,0,0,0,549.3,166.726l11.092-18.481c-3.159,1.363-6.025,2.957-8.775,4.333a1.441,1.441,0,0,1-1.106-.114l-9.316-7.844a3.309,3.309,0,0,1-1.186-2.541c-.386-5.033-.543-9.856-.434-14.918.217-10.006.459-21.485,2.73-31.148a23.68,23.68,0,0,1,2.3-6.248L556,98.341a1.614,1.614,0,0,1,.488,1.547,32.9,32.9,0,0,0-.409,7.757,101.25,101.25,0,0,0,.957,10.152l2.5,16.074c.232,1.491.465,3.573,1.744,4.547,4.16,2.169,9.015-3.77,11.5-6.731,5.725-6.818,10.721-14.16,14.006-22.484l4.952-12.548,6.213,3.477-1,8.168a3.1,3.1,0,0,0,.353,1.958,31.413,31.413,0,0,0,3.146,3.037,1.525,1.525,0,0,1,.451,1.917,76.11,76.11,0,0,1-6.538,13.808" transform="translate(-68.789 -11.461)"/>
    <path id="Path_3387" data-name="Path 3387" class="cls-3" d="M302.577,169.682l-5.346.924a2,2,0,0,0-.956.887l-3.264,6.765-3.362-1.036,8.788-54.724a8.768,8.768,0,0,0-2.148.262c-2.875.445-8.676-2.042-10.893-3.746a6.9,6.9,0,0,1-2.175-4.431c-.482-3.345-.792-6.569-.973-9.965-.146-2.754.493-5.431.851-8.1a1.894,1.894,0,0,1,1.721-1.825,39.813,39.813,0,0,1,11.3-1.187,58.425,58.425,0,0,1,12.238,1.769l18.71,4.776c.435.112.869,1.047.962,1.452l2.185,9.5,1.391,1.394.8,5.069-16.18.558a45.408,45.408,0,0,0,.693,4.723c1.876,7.287.523,12.461-1.8,19.469a130.839,130.839,0,0,1-5.649,14.388l-5.62,12.032a1.928,1.928,0,0,1-1.268,1.046" transform="translate(-36.033 -11.934)"/>
    <path id="Path_3388" data-name="Path 3388" class="cls-3" d="M516.493,154.822c-2.739.24-5.317.332-7.976.366a55.177,55.177,0,0,1-6.676-.544c-2.087-.224-2.577-6.2-2.86-7.952a2.585,2.585,0,0,1,1.476-.563c9.591,1.16,15.8-.47,24.9-.505a3.441,3.441,0,0,1,3.568,2.725l1,4.318a3.417,3.417,0,0,1,.093.979c-.032.275-.659.75-.957.663-4.462-1.313-7.887.1-12.567.514" transform="translate(-63.707 -18.592)"/>
    <path id="Path_3389" data-name="Path 3389" class="cls-3" d="M54.783,77.156c-5.26,5.294-12.258,6.5-19.491,6.426a16.668,16.668,0,0,1,3.5-5.034L43.536,73.9a2.491,2.491,0,0,1,1.594-.552l9.091,3.283a1.981,1.981,0,0,1,.562.523" transform="translate(-4.506 -9.363)"/>
    <path id="Path_3390" data-name="Path 3390" class="cls-3" d="M99.472,63.5a14.582,14.582,0,0,1-2.211.656c-.461.2,2.722-1.659,2.211-.656" transform="translate(-12.412 -8.069)"/>
    <path id="Path_3391" data-name="Path 3391" class="cls-3" d="M151.978,31.794A82.54,82.54,0,0,1,137.424,40a21.872,21.872,0,0,1-3.906,1.622c-4.823,1.068-8.69-2.083-12.163-5.238a23.73,23.73,0,0,1-4.48,9.873,1.828,1.828,0,0,1-.95.658,1.584,1.584,0,0,1-1.037-.39l-4.221-4.287L108.1,54.393c-.138.651-.652,1.445-1.336,1.517a1.809,1.809,0,0,1-1.4-.994L99.288,41.381c-1.259,5.711-4.637,8.8-9.037,12.023a13.836,13.836,0,0,1,1.688,1.38c.184,2.544-6.148,4.188-7.98,4.539-2.494.477-4.959.789-7.473,1.081-.892.1-1.141.743-1.278,1.53A10.4,10.4,0,0,1,68.8,63.218c-3.567-.356-5.387-2.956-6.876-5.909L59.2,51.924,56.418,62.285A3.227,3.227,0,0,1,55.112,64.3a.933.933,0,0,1-1.394-.411l-4.738-8.953L42.8,61.674l6.674,2.574a18.513,18.513,0,0,1,3.1,1.815,1.828,1.828,0,0,1,.411,2.313,7.406,7.406,0,0,1-1.185,1.477C45.635,75.779,37.606,77,29.39,76.186a1.2,1.2,0,0,1-.923-1.658,30.548,30.548,0,0,1,5.542-8.621L36.9,62.993c-4.943-1.488-11.133-2.319-14.879-6.006a4.623,4.623,0,0,1-1.332-4.236,4.715,4.715,0,0,1,2.591-3.222c4.748-2.3,9.96-1.629,15.044-1.015a1.31,1.31,0,0,1,1.2,1.1c.044.434-.085,1.415-.741,1.37l-6.67-.455a15.725,15.725,0,0,0-7.962,1.4A2.083,2.083,0,0,0,23.1,53.24c-.311,1.685,1.988,3.177,3.275,3.593l11.91,3.854a1.911,1.911,0,0,0,2.02-.449c3.477-3.142,5.51-5.159,7.948-9.262.286-.482,1.063-1.079,1.6-.86.718.295.9,1.189,1.082,1.865a27.524,27.524,0,0,0,3.627,7.913l2.707-10.267c.174-.657.663-1.826,1.445-1.8,1.109.037,1.9,1.258,2.364,2.162l3.3,6.443a11.213,11.213,0,0,0,3.057,3.838c.975.746,2.257.582,3.4.548,1.982-.058.778-1.669,2.281-2.268l9.067-3.615c.035-.03-.024-.137-.118-.281-4.147-1.16-8.674-1.25-12.281-3.786a4.3,4.3,0,0,1-1.314-5.709,6.33,6.33,0,0,1,4.38-3.186,31.855,31.855,0,0,1,17.2,1.529A1.586,1.586,0,0,1,90.9,45.46a1.241,1.241,0,0,1-1.475.432,33.7,33.7,0,0,0-12.6-1.962A11.706,11.706,0,0,0,71.6,45.2c-.851.465-1.575,1.657-.963,2.559a6.036,6.036,0,0,0,2.172,1.881l13.038,2.91a1.948,1.948,0,0,0,1.526-.427l3.549-2.732a21.474,21.474,0,0,0,3.663-3.522,11.569,11.569,0,0,0,1.873-11.8l-3.128-7.6a1.265,1.265,0,0,1,.652-1.754,1.222,1.222,0,0,1,1.664.714c.782,1.636,1.585,3.181,2.262,4.912L104.2,46.436a37.442,37.442,0,0,0,2.015,4.454A22.758,22.758,0,0,0,107.63,45.1l.919-6.447c.106-.737.583-1.624,1.4-1.665.584-.03,1.036.622,1.227,1.107.979,2.49,2.607,3.725,4.5,5.48a5.523,5.523,0,0,0,.9-1.426l2.949-8.732a1.535,1.535,0,0,1,.576-.766c1.065-.547,2.88,1.716,3.358,2.133a35.136,35.136,0,0,0,5.892,3.951,4.326,4.326,0,0,0,4.21.12c2.948-1.55,4.6-1.691,7.255-3.206a95.512,95.512,0,0,0,8.3-5.244,11.2,11.2,0,0,0,3.393-3.817,1.26,1.26,0,0,0-.534-1.824,44.26,44.26,0,0,0-4.895-3.011,47.331,47.331,0,0,0-6.434-2.213l-10.364-2.906c-7.79-2.183-22.4-2.969-30.771-3.512L91.522,12.6c-2.8-.182-6.059-2.388-8.412-3.969C79.549,6.241,72.047,1.585,68.051.739L64.566,0a1.008,1.008,0,0,0,.314,1.076c2.766,2.624,1.055,5.967-1.116,8.3-1.784,1.916-3.411,3.8-5.014,5.891a66.178,66.178,0,0,1-6.885,7.759c-2.607,2.484-5.145,4.85-7.885,7.178-4.362,3.709-9.992,6.381-15.839,5.972l-8.883-.621c-.108-.008-.458.252-.418.353l.121.308,4.83,6.344a1.669,1.669,0,0,1-.056,2.2c-.817.881-1.557,1.8-2.431,2.629a25.9,25.9,0,0,0-4.518,5.364A138.432,138.432,0,0,0,9.266,67.716c-.874,1.98-1.569,3.9-2.593,5.807a45.118,45.118,0,0,0-4,9.515A65.479,65.479,0,0,0,.315,94.471a100.7,100.7,0,0,0-.28,11.151,22.9,22.9,0,0,0,1.424,8.017,174.081,174.081,0,0,0,24.323,42.923,73.231,73.231,0,0,0,12.405,13.167l5.794,4.548a.572.572,0,0,0,.506.055.589.589,0,0,0,.2-.5A137.236,137.236,0,0,0,40,159.271a86.13,86.13,0,0,1-2.768-8.35c-1.761-6.468-1.441-12.827,3.475-17.751,3.655-3.66,8.164-5.545,12.883-7.492a119.161,119.161,0,0,0,12.793-5.957c.609-.34,2.47-2.441,2.317-2.668a.723.723,0,0,0-.5-.144,62.956,62.956,0,0,0-11.6,3.29l-10.358,3.982c-5.251,2.019-12.009,4.132-17.619,4.031a12.7,12.7,0,0,1-11.733-8.044,8.736,8.736,0,0,1,2.544-10.042,19.594,19.594,0,0,1,5.968-3.353c3.38-1.262,6.746-2.176,10.231-3.146a64.092,64.092,0,0,1,8.339-1.787,2.092,2.092,0,0,1,2.369,2l.412,8.236a61.983,61.983,0,0,0,7.756-7.945c3.453-4.161,6.743-5.592,11.531-7.7A72.185,72.185,0,0,1,73.8,93.5a101.088,101.088,0,0,0,10.165-3.815l6.581-2.837a1.886,1.886,0,0,1,1.535.178,2.04,2.04,0,0,1,.658,1.1l.678,4.226L99.41,87.59a36.991,36.991,0,0,0,4.817-4.3,33.116,33.116,0,0,1,5.92-5.434c2.821-1.95,5.545-3.866,8.49-5.641A99.24,99.24,0,0,0,127.96,66c2.983-2.285,5.957-4.328,9.073-6.427a47.609,47.609,0,0,0,9.718-8.664c4.06-4.759,4.35-6.884,7.186-11.712a10.484,10.484,0,0,0,1.574-4.58l.338-4.447a22.662,22.662,0,0,0-3.871,1.62m-34.27-10.025a1.7,1.7,0,0,1,1.325-1.326c1.319-.238,4.038-.389,4.371,1.454a7.963,7.963,0,0,1-.047,3.1c-.422,1.926-2.816,1.868-4.256,1.523-1.959-.468-1.7-3.247-1.393-4.746" transform="translate(0 0)"/>
    <path id="Path_3392" data-name="Path 3392" class="cls-3" d="M257.235,126.882l-4.954-.049-.031-17.458-.326-7.062a49,49,0,0,0-1.013-7.935A10.144,10.144,0,0,0,248,89.058c-1.966-.182-3.857,1.321-5.736-1a2.829,2.829,0,0,0-2.43-.808c-7.676.542-8.352.48-15.841,3.552.117,2.422,1.951,3.761.444,4.875l-10.74,7.936a3.183,3.183,0,0,0-1.024,1.593l-8.71,29.525a2.194,2.194,0,0,1-1.34,1.549l-8,1.628c-1.623,1.665.82,5.907,1.829,7.546,3.054,4.958,4.686,4.689,3.8,11.189a37.658,37.658,0,0,1-1.648,6.648,56.2,56.2,0,0,0-2.587,12.029,11.488,11.488,0,0,0,3.294.353c.556-.024,1.208-.961,1.284-1.455.237-1.545,1.38-2.011,2.372-2.758,1.164-.877,1.636-2.73,2.087-4.108l4.19-12.825a1.65,1.65,0,0,1,1.145-.879l5.613-.892,15.924-2.4a19.273,19.273,0,0,1,1.068,5.921c.285,5.152-.049,10.082-.235,15.219a36.132,36.132,0,0,0,4.374-1.683l-.165-4.8,11.325-6.744c.7-2.963,1.015-5.694,1.455-8.654a11.443,11.443,0,0,1,4.908-7.287,5.658,5.658,0,0,0,2.408-3.905l1.277-7.343c.143-.825.215-1.678.316-2.534a1.433,1.433,0,0,0-1.415-1.665m-40.585,6.765,4.83-13.871c1.624-3.726,2.934-7.464,5.846-10.754l3.93,22.093Z" transform="translate(-24.778 -11.138)"/>
    <path id="Path_3393" data-name="Path 3393" class="cls-3" d="M679.128,128.108c-.017-.645-.857-1.231-1.47-1.237l-5.119-.051-.014-15.964a109.15,109.15,0,0,0-.789-14.229,13.111,13.111,0,0,0-3.252-7.5c-1.8-.543-3.739,1.489-5.772-.98A2.64,2.64,0,0,0,660.9,87.2a32.221,32.221,0,0,0-12.035,1.848l-4.618,1.8,1.1,3.36a1.5,1.5,0,0,1-.385,1.408l-10.877,8.02a2.975,2.975,0,0,0-.868,1.121l-9.188,30.746a1.84,1.84,0,0,1-1.075.8l-7.266,1.439a2.1,2.1,0,0,0-1.3,1.063,2.741,2.741,0,0,0,.205,1.815l3.9,7.394c.686,1.3,1.961,2.512,2.4,3.978a40.21,40.21,0,0,1-.974,7.572l-3.2,12.955a15.66,15.66,0,0,0-.231,2.864l2.089.277c2.818.372,2.058-1.957,3.357-3.453a4.191,4.191,0,0,0,2.741-2.662l4.9-15.029a1.209,1.209,0,0,1,.957-.866l2.976-.455,18.055-2.784a.991.991,0,0,1,1.021.564,38.375,38.375,0,0,1,.941,9.766l-.5,10.338c-.007.141.09.468.16.453a3.384,3.384,0,0,0,.382-.1l3.866-1.583c.468-1.545-.718-4.564.388-5.2l10.219-5.913a2.327,2.327,0,0,0,.9-1.476l1.219-7.969a6.075,6.075,0,0,1,.947-2.848c1.874-2.13,3.761-3.939,5.789-5.894l2.205-9.712a12.088,12.088,0,0,0,.033-2.724m-34.749,4.3-7.466,1.208c1.021-3.635,2.276-7.018,3.575-10.54,1.311-3.557,4.3-11.285,7.067-13.914.747,3,1.3,5.81,1.817,8.82l2.237,13.138Z" transform="translate(-78.43 -11.133)"/>
    <path id="Path_3394" data-name="Path 3394" class="cls-3" d="M849.914,71.512a3.829,3.829,0,0,0-2.267-3.718,9.581,9.581,0,0,0-3.172-1.108c-.251-.3-.745-.08-.976-.422H739.069c-.409.341-1.022.072-1.425.439a18.482,18.482,0,0,0-1.8.492c-2.842,1.085-3.589,2.161-3.589,5.081q0,47.5-.034,95a4.26,4.26,0,0,0,2.7,4.19,15.253,15.253,0,0,0,6.829,1.317q48.812-.01,97.623-.005c.9,0,1.8.014,2.7-.04a12.957,12.957,0,0,0,5.7-1.534,3.744,3.744,0,0,0,2.135-3.564q-.06-48.063,0-96.127m-8.1,98.968a8.873,8.873,0,0,1-1.522.038H741.85c-.469,0-.936.011-1.407-.03-2.717-.236-3.625-1.189-3.625-3.775q0-47.383-.031-94.776c0-2.074.9-2.694,2.583-3.158a10.786,10.786,0,0,1,2.911-.3h97.387a12.6,12.6,0,0,1,3.372.339c1.794.5,2.365,1.2,2.365,2.959v47.838c0,15.721-.033,31.441.034,47.162.01,2.342-.476,3.143-3.617,3.692" transform="translate(-93.485 -8.46)"/>
    <path id="Path_3395" data-name="Path 3395" class="cls-3" d="M840.835,94.541c-.831-1.12-.844-1.11.482-1.718,1.352-.618,1.5-1.514.334-2.395a6.733,6.733,0,0,0-1.525-.823,35.706,35.706,0,0,0-8.648-1.932,12.555,12.555,0,0,1-4.556-2.033c2.14-.243,4.24-.19,6.339-.257a16.647,16.647,0,0,0,6.1-.946c1.576-.672,1.681-1.7.338-2.716a10.425,10.425,0,0,0-3.736-1.563c-1.488-.4-3-.721-4.582-1.1a2.56,2.56,0,0,1,1.266-.7,19.18,19.18,0,0,0,4.323-2.225c2.269-1.632,2.16-2.8-.461-3.751-6.551-2.376-13.272-3.171-20.116-1.444-2.444.618-4.732,1.084-7.079-.161a5.591,5.591,0,0,0-1.581-.4,18.23,18.23,0,0,0-7.318-.321c-1.794.4-2.005,1.136-.906,2.521a5.38,5.38,0,0,1,1.532,2.853c.1,1.336-.456,1.726-1.754,1.224a7.858,7.858,0,0,1-2.64-2.02,6.768,6.768,0,0,0-6.051-2.007c-.811.11-1.638.156-2.436.331-2.115.463-4.064,1.186-4.928,3.353-.6,1.516-.451,2,1.06,2.694a33.85,33.85,0,0,0,8.943,2.623,6.817,6.817,0,0,1,2.27.423c-.289.431-.716.342-1.077.425a37.953,37.953,0,0,1-6.767.475,8.812,8.812,0,0,0-4.264,1.06c-1.138.691-1.144,1.313,0,2.021a11.071,11.071,0,0,0,3.617,1.266,41.275,41.275,0,0,0,6.863.755c.345.014,1.073,0,.689.5-.716.942-1.345,2.137-2.64,2.429a12.642,12.642,0,0,1-4.887.318,9.747,9.747,0,0,0-4.405.276c-.926.272-1.059-.047-1.052-.836.03-3.713.016-7.427.019-11.141a9.606,9.606,0,0,0-.85-4.158c-1.257-2.694-3.812-3.639-6.475-4.362a26.55,26.55,0,0,0-16.661.729,11.7,11.7,0,0,1-7.435.46,16.066,16.066,0,0,0-6.634-.284c-.819.124-1.684.347-1.921,1.247-.222.853.646,1.127,1.158,1.513a4.831,4.831,0,0,1,2.17,3.924,145.188,145.188,0,0,1-.844,18.088c-.612,5.292-1.316,10.573-1.4,15.912a5.521,5.521,0,0,0,1.878,4.43,7.48,7.48,0,0,0,10.266.2,6.957,6.957,0,0,0,1.692-2.385c.323-.679.537-.782,1.276-.483,2.3.93,4.629,1.806,6.986,2.594a32.649,32.649,0,0,0,11.2,2.118c3-.077,5.776-1.2,5.614-5.524-.143-3.859-.021-7.726-.048-11.591-.005-.835.209-1.043.987-.56a16.99,16.99,0,0,0,3.5,1.553c.477.163,1.084.034,1.481.489-.4.5-.992.544-1.442.829-.727.459-1.546.917-1.477,1.868.064.9.893,1.263,1.657,1.574a11.217,11.217,0,0,0,1.663.524,25.848,25.848,0,0,0,6.878.492c.313-.011.691-.229.959.212a9.123,9.123,0,0,1-2.244,1.168,43.583,43.583,0,0,1-7.8,1.861c-.666.129-1.415.161-1.856.8a2.163,2.163,0,0,0-.774,2.719,4.367,4.367,0,0,0,2.514,2.533,12.32,12.32,0,0,0,4.991,1.07,27.476,27.476,0,0,0,14.35-3.909,1.966,1.966,0,0,1,1.769-.16,94.821,94.821,0,0,0,12.518,3.332c3.7.72,7.423,1.16,11.156.262,2.9-.7,5.538-1.9,6.707-4.749,1.425-3.477,1.737-6.994-.56-10.326-.332-.479-.184-.693.361-.713a9.726,9.726,0,0,0,2.977-.577,3.481,3.481,0,0,0,2.538-3.74,7.222,7.222,0,0,0-1.59-4.035m-77.63,2.327c-.612-.118-1.209-.288-1.815-.434a2.054,2.054,0,0,0-.646-.241c-.45-.147-1.02-.258-1.015-.775,0-.5.579-.65,1-.843.209-.1.473.009.671-.151,1.229-.195,2.464-.364,3.687-.591.683-.128.944.082.922.737-.1,3.3.613,2.955-2.8,2.294m-4.991-14.321c.059-1.233.034-2.471.007-3.707-.011-.461.064-.8.572-.966a38.019,38.019,0,0,1,4.9-1.489c1.589-.28,2.278.284,2.289,1.824.007.823,0,1.648,0,2.472H766c0,.936-.014,1.873,0,2.809.011.608-.239.789-.865.664a33.768,33.768,0,0,0-5.927-.58c-.75-.016-1.025-.29-.989-1.028m-.086,8.173c.044-2.362.051-2.377,2.251-1.367.643.3,1.615.453,1.623,1.264.009.844-.936,1.1-1.62,1.432-.034.017-.071.032-.1.047-2.137.915-2.188.881-2.148-1.377m7.872,16.2a6.032,6.032,0,0,0-.011,1.122c0,3.772-.353,4.09-4.234,3.753-1.24-.11-2.474-.3-3.713-.443-.574-.064-.831-.311-.749-.89a52.561,52.561,0,0,0,.4-6.5c.019-.884.289-1.052,1.113-.667a22.264,22.264,0,0,0,5.638,1.821c1.168.2,1.781.589,1.552,1.8m18.893-10.512a22.146,22.146,0,0,1-2.58.722c-1.015.174-.679-.64-.748-1.117-.161-1.011.249-1.228,1.191-.872.65.245,1.352.379,2.019.573.177.051.407.068.448.3s-.149.34-.33.4m16.992,5.345c-2.1.5-4.218.939-6.328,1.4l-.087-.3a27.976,27.976,0,0,0,5.475-3.611c.11-.093.3-.225.4-.191.815.3.659,1.1.909,1.685.186.437.172.884-.365,1.009m15.56-27.568a10.782,10.782,0,0,1,2.893-.251c1.093.1,1.493.677,1.223,1.7-.01.036-.023.072-.032.108-.729,2.382-.8,2.436-3.773,2.516-.664-.128-1.6.485-2.14-.059-.475-.479.1-1.321.083-2.019-.033-1.674.01-1.664,1.746-1.985m-6.091,13.068c.654-.543,1.5-.28,2.128-.478a1.593,1.593,0,0,1,1,.215c.2.128.377.306.292.555-.065.193-.272.234-.479.253-.891.081-1.781.169-2.672.256-.242.024-.495.023-.577-.244-.075-.251.138-.414.313-.557m4.183,25.7-5.249-.468c-.226-.02-.52.036-.625-.205-.143-.34.215-.43.416-.581a21.771,21.771,0,0,0,5.593-5.842,1.31,1.31,0,0,1,.484-.477,3.54,3.54,0,0,1,4.516,1.913,3.259,3.259,0,0,1,.115.337c.021.11.028.223.038.335.416,4.148-.747,5.232-5.292,4.988m13.8-13.023c-.126.244-.4.154-.625.12a60.943,60.943,0,0,0-11.674-.445,1.343,1.343,0,0,1-1.083-.324c-1.59-1.926-4-2.28-6.193-3.067a2.953,2.953,0,0,1-1.331-.537,10.36,10.36,0,0,1,2.876-.41c3.807-.336,7.615-.653,11.422-.987a1.541,1.541,0,0,1,1.27.427c1.674,1.564,3.362,3.118,5.04,4.679.157.147.43.288.3.543" transform="translate(-94.681 -8.916)"/>
    <path id="Path_3396" data-name="Path 3396" class="cls-3" d="M839.307,147.4a10.263,10.263,0,0,0-4.851-5.571c-6.615-4.146-14-5.54-21.775-5.452a53.446,53.446,0,0,0-10.448,1.26c-.495.1-1.059.313-1.187-.441a4.65,4.65,0,0,0-2.688-3.212,24.057,24.057,0,0,0-8.824-2.494,116.522,116.522,0,0,0-20.61-.48,19.531,19.531,0,0,0-3.234.512,4.746,4.746,0,0,0-2.309,1.031c-.887.818-.789,1.5.3,2.012a6.413,6.413,0,0,0,1.922.468c4.568.586,9.169.959,13.7,1.8a21.68,21.68,0,0,1,4.843,1.3c.311.139.673.316.645.72s-.39.541-.728.648a5.893,5.893,0,0,1-2.434.158c-5.867-.6-11.646-1.829-17.54-2.244-4.042-.285-8.052-.261-11.921,1.1a7.1,7.1,0,0,0-3.714,2.418,2.121,2.121,0,0,0,.043,2.881,20.228,20.228,0,0,0,2.651,2.539,92.99,92.99,0,0,0,7.96,5.722c.251.165.642.249.557.625-.066.291-.411.3-.673.352a12.844,12.844,0,0,1-2.183.386c-3.586.04-6.185,1.9-8.486,4.235-1.4,1.418-1.107,2.72.7,3.623a14.562,14.562,0,0,0,4.312,1.4c3.632.557,7.16-.085,10.677-.85a28.376,28.376,0,0,0,3.284-.9,5.106,5.106,0,0,0,.883-.292,2.409,2.409,0,0,1,3.016.473c3.509,2.866,6.967,5.786,10.307,8.828,3.254,2.957,6.712,5.626,11.107,6.874,3.577,1.015,7.175,1.276,10.607-.441,2.867-1.435,3.432-3.811,1.64-6.384a25.774,25.774,0,0,0-6.372-5.9,135.552,135.552,0,0,0-14.925-9.078c-.231-.125-.6-.146-.625-.445-.028-.372.4-.386.636-.557,1.312-.955,2.234,0,3.229.6a49.178,49.178,0,0,0,4.672,2.281,82.319,82.319,0,0,0,13.007,4.136c7.591,1.677,15.169,1.969,22.723-.125a20.739,20.739,0,0,0,9.813-5.456c2.179-2.3,3.236-4.938,2.3-8.056M780.5,144.63c-2.933,1.224-5.876,2.426-8.8,3.656a1.663,1.663,0,0,1-1.445.128c-3.129-1.436-6.316-2.763-9.306-4.463a6.77,6.77,0,0,1-.768-.509c-.358-.273-.885-.5-.781-1.024.121-.6.7-.744,1.254-.845a20.458,20.458,0,0,1,6.06.161c4.412.515,8.806,1.166,13.206,1.749.68.09,1.369.116,2.258.188a3.209,3.209,0,0,1-1.678.959m39.841,7.227a20.573,20.573,0,0,1-11.626,2.843,115.139,115.139,0,0,1-18.077-2.394c-.57-.109-1.549.137-1.636-.461-.09-.613.912-.665,1.441-.918a90.985,90.985,0,0,1,17.709-6.75,23.494,23.494,0,0,1,10.669-.188c.114.025.229.044.341.079,1.812.567,3.456,1.345,3.794,3.392.347,2.094-.977,3.392-2.614,4.395" transform="translate(-95.429 -16.695)"/>
    <path id="Path_3397" data-name="Path 3397" class="cls-3" d="M854.912,192.7v1.56h-2.636v7.25h-1.853v-7.25h-2.647V192.7Z" transform="translate(-108.239 -24.603)"/>
    <path id="Path_3398" data-name="Path 3398" class="cls-3" d="M858.871,201.511h-1.715V192.7h2.677l1.6,6.927,1.59-6.927h2.648v8.81h-1.715v-5.959q0-.258.006-.721c0-.309.006-.547.006-.714l-1.668,7.394h-1.787l-1.656-7.394c0,.167,0,.406.006.714s.006.549.006.721Z" transform="translate(-109.437 -24.603)"/>
    <path id="Path_3399" data-name="Path 3399" class="cls-3" d="M689.838,177.822a11.135,11.135,0,1,1-18.957,7.851,10.585,10.585,0,0,1,3.467-8.092,10.879,10.879,0,0,1,7.64-3.015,10.7,10.7,0,0,1,7.851,3.256m-7.851-1.356a8.767,8.767,0,0,0-6.525,2.773,9.215,9.215,0,0,0,6.525,15.687,8.762,8.762,0,0,0,6.465-2.713,8.995,8.995,0,0,0,2.682-6.54,8.9,8.9,0,0,0-2.668-6.434,8.717,8.717,0,0,0-6.48-2.773M680.345,187.5v4.355H677.12V179.539q1.145,0,3.428.008t2.539.023a5.937,5.937,0,0,1,2.427.632,3.1,3.1,0,0,1,1.642,2.939,2.706,2.706,0,0,1-.866,2.245,4.019,4.019,0,0,1-2.132.829,4.2,4.2,0,0,1,1.748.708,3.332,3.332,0,0,1,1.084,2.757v1.1a2.966,2.966,0,0,0,.023.362,1.85,1.85,0,0,0,.083.361l.106.347h-3.074a8.756,8.756,0,0,1-.2-1.7,5.553,5.553,0,0,0-.2-1.507,1.492,1.492,0,0,0-.9-.9,3.62,3.62,0,0,0-1.1-.2l-.707-.044Zm1.251-2.216a3,3,0,0,0,1.763-.452,1.671,1.671,0,0,0,.632-1.462,1.41,1.41,0,0,0-.994-1.4,5.4,5.4,0,0,0-1.869-.256h-.783v3.571Z" transform="translate(-85.654 -22.288)"/>
  </g>
</svg>
