<svg id="Group_14451" data-name="Group 14451" xmlns="http://www.w3.org/2000/svg" width="37.407" height="37.399" viewBox="0 0 37.407 37.399">
  <path id="Path_1" data-name="Path 1" d="M18.633,40.936a9.589,9.589,0,1,0,9.589,9.589A9.573,9.573,0,0,0,18.633,40.936Zm0,15.823a6.234,6.234,0,1,1,6.234-6.234,6.245,6.245,0,0,1-6.234,6.234ZM30.85,40.544a2.237,2.237,0,1,1-2.237-2.237A2.231,2.231,0,0,1,30.85,40.544Zm6.351,2.27c-.142-3-.826-5.65-3.021-7.836s-4.84-2.871-7.836-3.021c-3.088-.175-12.343-.175-15.43,0-2.988.142-5.641.826-7.836,3.013S.207,39.809.056,42.805c-.175,3.088-.175,12.343,0,15.43.142,3,.826,5.65,3.021,7.836s4.84,2.871,7.836,3.021c3.088.175,12.343.175,15.43,0,3-.142,5.65-.826,7.836-3.021s2.871-4.84,3.021-7.836c.175-3.088.175-12.334,0-15.422ZM33.212,61.549A6.311,6.311,0,0,1,29.657,65.1c-2.462.976-8.3.751-11.024.751s-8.571.217-11.024-.751a6.311,6.311,0,0,1-3.555-3.555c-.976-2.462-.751-8.3-.751-11.024s-.217-8.571.751-11.024a6.311,6.311,0,0,1,3.555-3.555c2.462-.976,8.3-.751,11.024-.751s8.571-.217,11.024.751A6.311,6.311,0,0,1,33.212,39.5c.976,2.462.751,8.3.751,11.024S34.188,59.1,33.212,61.549Z" transform="translate(0.075 -31.825)" fill="#efefef"/>
</svg>
