<svg xmlns="http://www.w3.org/2000/svg" width="39.355" height="37.734" viewBox="0 0 39.355 37.734">
  <path id="Path_3015" data-name="Path 3015" d="M23667.125,18736.23h0a19.9,19.9,0,0,1-12.527-6.111,18.478,18.478,0,0,1-5.1-12.707c0-10.428,8.832-18.916,19.68-18.916s19.676,8.488,19.676,18.916a18.465,18.465,0,0,1-4.844,12.426,19.845,19.845,0,0,1-11.969,6.293v-12.016h5.332v-4.721h-5.332V18719c0-5.352,1.719-6.311,6.559-6.311v-4.729l-.012.006c-5.336,0-11.461,1.25-11.461,11.033v.393h-5.324v4.721h5.324v12.115Z" transform="translate(-23649.496 -18698.496)" fill="#efefef"/>
</svg>
