<svg xmlns="http://www.w3.org/2000/svg" xmlns:xlink="http://www.w3.org/1999/xlink" width="72.74" height="62" viewBox="0 0 72.74 62">
  <defs>
    <clipPath id="clip-path">
      <rect id="Rectangle_6105" data-name="Rectangle 6105" width="72.74" height="62" fill="#f0f0f0"/>
    </clipPath>
  </defs>
  <g id="Group_14431" data-name="Group 14431" transform="translate(-282.175 -1029.301)">
    <g id="Group_14429" data-name="Group 14429" transform="translate(282.175 1029.301)">
      <g id="Group_14427" data-name="Group 14427" clip-path="url(#clip-path)">
        <path id="Path_2978" data-name="Path 2978" d="M77.633,67.2l-1.426-1.185a52.537,52.537,0,0,1,13.5,1.822,21.408,21.408,0,0,1,10.384,5.292c1.2,1.119,4.851,5.1,1.182,5.183-3.927.092-9.435-2.2-12.691-4.364-3.144-2.087-5.645-5.48-9.759-6.033.314.735,1.3.9,1.765,1.439.479.555.624,1.794.9,2.066.191.189,2.6.78,3.283,1.112,2,.977,3.987,2.951,4.248,5.255.3,2.63-3.1,8.483-4.849,10.548-1.824,2.154-7.618,7-10.458,6.9-3.213-.108-6.687-7.246-6.533-10.231-2.209.769-5.6,2.189-7.362,0,2.378-.131,4.4-2.216,6.033-3.826,1.092-1.08,2.208-2.489,3.23-3.657-1.155-.5-2.533-.386-3.707-.8-1.255-.447.5-.5.868-.609a24.746,24.746,0,0,0,6.146-2.88c2.758-1.816,3.476-2.96.971-5.68-.033-.068.558-.355.593-.355ZM69.867,85.411c.97,1.088,4.121,1.057,5.274.312,1.784-1.153,7-6.959,7.427-8.96.453-2.138-1.815-3.125-3.4-2.215-.909.521-3.345,3.449-4.379,4.409-1.722,1.6-3.561,3.095-5.246,4.736-.432.4.011,1.361.328,1.717" transform="translate(-30.125 -33.242)" fill="#f0f0f0"/>
        <path id="Path_2979" data-name="Path 2979" d="M17.219,9.265c-.386-.069-1.872-.983-1.543-1.422a23.529,23.529,0,0,1,3.743-1.367,30.142,30.142,0,0,1,3.213-.252c1.018.135,3.695,2.408,4.313,3.292,1.726,2.469.3,4.1-.225,6.631a79.722,79.722,0,0,0-1.777,12c-.157,4.278,1.33,8.606.95,12.938,4.561-.2,6.719-4.264,9.5-7.243-1.982.073-3.689,1.882-5.354.129-.755-.8-1.279-1.871-.456-2.849.66-.784,7.479-2.987,9.21-4.1a6.578,6.578,0,0,0,2.3-2.679c-2.318.221-4.319-1.317-4.031-3.774.4-3.426,6.21-2.138,6.615-3.379-.129-4.067,1.986-8.313.389-12.2L42.4,6.411c-1.384-1.192-1.593-1.684-.7-3.3.4-.723,2.365-3.03,3.1-3.1,1.5-.145,4.8,2.437,5.415,3.822.643,1.439.184,2.559-.091,4.012,1.251-1.576,2.444-1.031,4.222-.542,1.537.423,6.144,2.194,6.233,4.006.026.536-1.375,1.65-1.9,2.119-1.947,1.733-4.211,3.152-6.179,4.861a33.6,33.6,0,0,1,3.087,2.262c.16.644-2.34,1.418-2.611,2.013l8.075,3.33c.543.746-3.044,2.1-3.561,2.255C53.675,29.3,47.674,29.6,44.249,31.3c-2.273,1.122-7.211,7.685-9.682,9.793a10.983,10.983,0,0,1-8.2,2.842,52.315,52.315,0,0,0,.24,5.818c.222,2.292.958,4.743,1.158,6.916.312,3.393-1.342,5.79-4.6,3.414-3.353-2.442-8-12.366-10.465-16.376-.271-.44-.407-1.588-.843-.624-.329.726-.474,1.731-.813,2.512-1.576,3.633-4.8,9.737-8.9,10.815-.371.1-2.154.308-2.141-.244,0-.152,1.542-1.907,1.849-2.421,4.294-7.193,6.238-22.364,6.7-30.823.279-5.14-1.216-9.688-2.372-14.6l5.161,2.794c2.5,1.918,4.472,4.59,4.352,7.879,1.606.463,3.337-.034,4.863.481l.827-10.206c-1.26-.155-2.964.211-4.157,0m35.99.715a14.267,14.267,0,0,0-3.562-1.19c-.1,1.757-.674,3.446-.474,5.224Zm-.5,15.171c.219-.307-.46-2.132-.567-2.108-1.317.776-4.338,1.206-5.427,2.113-.3.251-.481,1.507-.874,1.914.283.217,6.661-1.629,6.868-1.919M15.2,30.635h4.633c.134,0,.364-.4.356-.594l.239-6.294-4.754.238Zm4.99,4.273-5.906.509a28.733,28.733,0,0,0-1.214,4.145c-.035.873,3.067,5.852,3.794,6.625a7.279,7.279,0,0,0,3.2,1.79c.5.025.31-.008.361-.357Z" transform="translate(0 0)" fill="#f0f0f0"/>
        <path id="Path_2980" data-name="Path 2980" d="M66.583,16.165c.776-.844,4.015,3.629,4.442,3.76.756.232,5-1.073,5.054-.081-1.7,3.067-6.075,9.9-9.693,5.421-2.8-3.461.4-5.342.2-9.1" transform="translate(-32.853 -8.088)" fill="#f0f0f0"/>
      </g>
    </g>
  </g>
</svg>
