<svg xmlns="http://www.w3.org/2000/svg" xmlns:xlink="http://www.w3.org/1999/xlink" width="200.487" height="336.411" viewBox="0 0 200.487 336.411">
  <defs>
    <style>
      .cls-1 {
        fill: #b9b9b9;
      }

      .cls-2 {
        clip-path: url(#clip-path);
      }
    </style>
    <clipPath id="clip-path">
      <rect id="Rectangle_6275" data-name="Rectangle 6275" class="cls-1" width="200.487" height="336.409"/>
    </clipPath>
  </defs>
  <g id="Group_14893" data-name="Group 14893" transform="translate(0 0.001)">
    <g id="Group_14888" data-name="Group 14888" transform="translate(0 0.001)">
      <g id="Group_14887" data-name="Group 14887" class="cls-2">
        <path id="Path_4826" data-name="Path 4826" class="cls-1" d="M161.255,80.468c-1.219-1.714-1.24-1.7.706-2.627,1.985-.947,2.2-2.316.491-3.658a9.813,9.813,0,0,0-2.235-1.258c-4.059-1.714-8.377-2.338-12.693-2.957-2.5-.357-4.513-1.788-6.686-3.108,3.14-.372,6.224-.291,9.3-.394,3.034-.1,6.109-.188,8.948-1.45,2.313-1.026,2.466-2.6.493-4.151a14.918,14.918,0,0,0-5.482-2.392c-2.183-.6-4.4-1.1-6.726-1.682a3.727,3.727,0,0,1,1.857-1.066,27.7,27.7,0,0,0,6.345-3.4c3.33-2.5,3.169-4.286-.676-5.739-9.608-3.637-19.476-4.851-29.52-2.207-3.588.942-6.945,1.657-10.39-.247a7.781,7.781,0,0,0-2.32-.612c-3.556-.686-7.14-1.324-10.738-.491-2.634.607-2.944,1.738-1.33,3.857,1,1.319,2.119,2.594,2.247,4.363.15,2.047-.668,2.644-2.574,1.874a11.653,11.653,0,0,1-3.875-3.09,9.69,9.69,0,0,0-8.878-3.073c-1.193.17-2.407.239-3.576.508-3.1.71-5.965,1.815-7.231,5.129-.888,2.321-.661,3.063,1.556,4.121a48.221,48.221,0,0,0,13.117,4.013,9.608,9.608,0,0,1,3.33.646c-.424.659-1.051.525-1.579.649-3.273.782-6.615.562-9.934.728a12.484,12.484,0,0,0-6.256,1.623c-1.67,1.056-1.675,2,0,3.09A15.87,15.87,0,0,0,82.252,69.4a58.126,58.126,0,0,0,10.074,1.152c.506.022,1.573,0,1.011.769-1.05,1.442-1.973,3.27-3.874,3.716a17.814,17.814,0,0,1-7.169.486,13.759,13.759,0,0,0-6.466.422c-1.359.417-1.553-.074-1.542-1.278.045-5.684.024-11.364.027-17.044a15.206,15.206,0,0,0-1.245-6.363c-1.845-4.114-5.6-5.568-9.5-6.671A37.467,37.467,0,0,0,39.119,45.7a16.517,16.517,0,0,1-10.911.7,22.623,22.623,0,0,0-9.736-.434c-1.2.187-2.471.53-2.816,1.907-.328,1.305.945,1.722,1.7,2.316a7.452,7.452,0,0,1,3.184,6A231.025,231.025,0,0,1,19.3,83.864c-.9,8.1-1.931,16.176-2.052,24.341A8.622,8.622,0,0,0,20,114.982c5.8,5.455,14.242,3.886,17.552-3.346.474-1.038.789-1.2,1.872-.738,3.376,1.421,6.794,2.76,10.254,3.966C55,116.712,60.4,118.253,66.121,118.1c4.4-.116,8.474-1.833,8.239-8.451-.212-5.9-.032-11.821-.071-17.732-.008-1.28.3-1.6,1.448-.86a24.285,24.285,0,0,0,5.14,2.378c.7.251,1.593.054,2.173.749-.577.77-1.455.834-2.113,1.268-1.068.7-2.269,1.4-2.17,2.856.1,1.376,1.314,1.933,2.432,2.407a16.188,16.188,0,0,0,2.447.8,36.436,36.436,0,0,0,10.1.754c.456-.017,1.011-.35,1.408.325-.937.922-2.21,1.191-3.3,1.788-3.675,1.514-7.588,2.061-11.445,2.846-.977.2-2.077.246-2.727,1.225a3.387,3.387,0,0,0-1.145,4.146,6.536,6.536,0,0,0,3.689,3.877,17.456,17.456,0,0,0,7.332,1.637c7.636.177,14.566-2.15,21.056-5.978a2.774,2.774,0,0,1,2.587-.246,134.947,134.947,0,0,0,18.371,5.1c5.428,1.1,10.9,1.775,16.373.4,4.251-1.066,8.128-2.907,9.842-7.265,2.092-5.315,2.55-10.7-.821-15.8-.484-.732-.271-1.058.532-1.088a13.7,13.7,0,0,0,4.365-.885,5.323,5.323,0,0,0,3.727-5.716,11.33,11.33,0,0,0-2.333-6.173M47.334,84.027c-.9-.18-1.776-.441-2.664-.666a2.98,2.98,0,0,0-.947-.367c-.661-.227-1.5-.394-1.492-1.186,0-.757.851-.992,1.465-1.288.306-.146.693.013.984-.23,1.8-.3,3.618-.557,5.413-.908,1-.2,1.383.13,1.352,1.127-.16,5.055.9,4.521-4.111,3.519M40.009,62.118c.089-1.886.05-3.778.01-5.67-.015-.7.094-1.225.841-1.475A53.8,53.8,0,0,1,48.054,52.7c2.331-.431,3.341.432,3.362,2.789.013,1.262,0,2.523,0,3.785h.008c0,1.431-.02,2.865.007,4.3.019.93-.35,1.209-1.267,1.016a47.533,47.533,0,0,0-8.7-.886c-1.1-.025-1.5-.444-1.452-1.576m-.128,12.5c.064-3.611.076-3.633,3.307-2.087.944.449,2.367.691,2.38,1.933.013,1.29-1.369,1.674-2.378,2.188a1.65,1.65,0,0,1-.155.072c-3.137,1.4-3.214,1.349-3.154-2.106M51.432,99.409a9.907,9.907,0,0,0-.013,1.716c0,5.769-.518,6.264-6.213,5.741-1.822-.168-3.632-.466-5.448-.678-.841-.1-1.225-.478-1.1-1.362a83.558,83.558,0,0,0,.594-9.941c.027-1.352.424-1.611,1.632-1.023a31.761,31.761,0,0,0,8.274,2.785c1.717.306,2.614.9,2.279,2.76M79.158,83.329a31.149,31.149,0,0,1-3.785,1.108c-1.492.264-1-.979-1.1-1.711-.235-1.547.365-1.877,1.746-1.334.955.373,1.978.58,2.964.876.259.077.6.1.656.458s-.217.521-.484.6M104.091,91.5c-3.085.757-6.19,1.435-9.287,2.143l-.128-.452a40.95,40.95,0,0,0,8.035-5.52c.161-.145.442-.347.58-.3,1.2.454.965,1.675,1.334,2.58.272.668.252,1.352-.535,1.544m22.837-42.165a15.211,15.211,0,0,1,4.247-.385c1.6.148,2.19,1.036,1.795,2.589-.015.056-.032.109-.049.163-1.063,3.647-1.179,3.727-5.537,3.85-.974-.2-2.346.742-3.139-.091-.7-.732.141-2.018.121-3.09-.05-2.562.013-2.545,2.56-3.036m-8.938,19.984c.959-.831,2.2-.427,3.124-.732a2.26,2.26,0,0,1,1.467.33c.3.2.552.468.429.848-.1.3-.4.36-.7.389-1.307.123-2.614.257-3.921.392-.355.035-.728.035-.846-.373-.113-.385.2-.634.452-.853m6.141,39.316q-3.853-.356-7.7-.717c-.328-.03-.762.054-.91-.315-.212-.52.316-.659.609-.891a32.7,32.7,0,0,0,8.21-8.935,1.924,1.924,0,0,1,.708-.728c2.489-1.283,6.271.643,6.8,3.44.032.168.04.341.057.513.609,6.345-1.092,8-7.766,7.633M144.39,88.715c-.183.373-.59.237-.917.182a85.721,85.721,0,0,0-17.135-.678,1.924,1.924,0,0,1-1.59-.5c-2.333-2.947-5.877-3.489-9.09-4.691a4.227,4.227,0,0,1-1.953-.821,14.648,14.648,0,0,1,4.22-.629c5.586-.515,11.177-1,16.763-1.512a2.22,2.22,0,0,1,1.864.653c2.459,2.4,4.935,4.77,7.4,7.159.232.225.632.442.439.831" transform="translate(10.642 29.077)"/>
        <path id="Path_4827" data-name="Path 4827" class="cls-1" d="M154.509,115.38c-1.171-3.848-4-6.372-7.238-8.424-9.793-6.207-20.66-8.19-32.066-7.894A75.331,75.331,0,0,0,99.9,101.2c-.722.168-1.547.5-1.751-.651-.422-2.387-2.076-3.753-4.013-4.858-4.023-2.3-8.5-3.075-13-3.64-10.06-1.267-20.156-.915-30.25-.316a27.749,27.749,0,0,0-4.735.848,6.843,6.843,0,0,0-3.366,1.625c-1.283,1.268-1.127,2.316.489,3.07a9.073,9.073,0,0,0,2.831.678c6.711.807,13.473,1.282,20.136,2.483a30.771,30.771,0,0,1,7.134,1.889c.464.205,1,.468.962,1.087s-.562.834-1.053,1.006a8.287,8.287,0,0,1-3.568.289c-8.624-.8-17.128-2.562-25.784-3.075-5.939-.355-11.821-.235-17.475,1.931-2.1.8-4.1,1.788-5.4,3.776a3.344,3.344,0,0,0,.123,4.405,30.206,30.206,0,0,0,3.944,3.83,136.691,136.691,0,0,0,11.806,8.588c.368.246.945.368.828.945-.093.447-.592.469-.981.552a18.257,18.257,0,0,1-3.191.634c-5.26.133-9.034,3.034-12.361,6.649-2.023,2.2-1.566,4.185,1.1,5.527a20.73,20.73,0,0,0,6.358,2.059c5.34.777,10.5-.276,15.65-1.517a40.18,40.18,0,0,0,4.8-1.443,7.5,7.5,0,0,0,1.293-.464c1.67-.969,2.925-.582,4.427.661,5.213,4.311,10.339,8.711,15.312,13.29,4.836,4.457,9.968,8.469,16.444,10.289,5.272,1.48,10.555,1.807,15.55-.888,4.177-2.259,4.957-5.9,2.271-9.8-2.511-3.64-5.954-6.326-9.477-8.895a197.639,197.639,0,0,0-22.09-13.591c-.341-.185-.885-.21-.923-.668-.049-.572.58-.6.92-.865,1.9-1.489,3.278-.054,4.752.844a71.3,71.3,0,0,0,6.9,3.394,117.269,117.269,0,0,0,19.175,6.062c11.167,2.41,22.3,2.7,33.34-.654,5.451-1.655,10.437-4.205,14.284-8.546,3.15-3.551,4.642-7.618,3.2-12.366m-86.349-3.061c-4.274,1.933-8.57,3.83-12.842,5.771a2.355,2.355,0,0,1-2.119.23c-4.621-2.136-9.324-4.1-13.749-6.637a10.08,10.08,0,0,1-1.137-.762c-.532-.41-1.31-.754-1.167-1.551.167-.913,1.009-1.152,1.822-1.319,2.974-.606,5.954-.193,8.9.123,6.486.7,12.947,1.6,19.421,2.405,1,.124,2.01.151,3.315.244a4.663,4.663,0,0,1-2.441,1.5m58.616,10.244a29.24,29.24,0,0,1-17,4.585c-8.97-.156-17.781-1.669-26.575-3.29-.839-.155-2.271.242-2.409-.666-.146-.937,1.324-1.038,2.094-1.43,8.324-4.261,16.753-8.281,25.843-10.684a33.1,33.1,0,0,1,15.653-.5c.167.037.338.064.5.116,2.671.829,5.1,1.986,5.638,5.107.552,3.2-1.361,5.211-3.744,6.775" transform="translate(13.621 62.198)"/>
        <path id="Path_4828" data-name="Path 4828" class="cls-1" d="M37.341,165.256a11.187,11.187,0,0,0,1.3-2.326c-1.477-.806-7.068-4.348-8.314-6.358a77.728,77.728,0,0,0,6.361-8.612c.6-.989,2.525-4.311,2.357-5.467a2.3,2.3,0,0,0-2.146-1.236,22.412,22.412,0,0,0-2.673,3.041c-.1.2-.089.352.178.4l.641.045c-1.6,2.464-3.292,5.132-5.056,7.482-.306.409-2.111,2.928-2.37,2.819A2.857,2.857,0,0,1,26.472,154c-.024-.141.678-1.727.843-2.362.444-1.707,1.561-6.56,1.337-7.766-.141-.754-2.045-2.794-3.46-3.512a6.338,6.338,0,0,0-1.64.2c.123.338.57.989.55,1.2-.1,1.1-2.012,8.839-2.3,10.091-.182.774-2.111,1.083-1.674,3.213.269,1.314.816,1.329,1.359,1.8l-.888,6.684,2.348,2.865,2.372-5.26c.059-.01,1.26,1.186,1.5,1.383a24.686,24.686,0,0,0,4.493,2.811,14.663,14.663,0,0,0,2.7,1.036c.242-.16,1.976-1.558,2.281-1.7.146-.067.918.562,1.045.575" transform="translate(13.685 95.732)"/>
        <path id="Path_4829" data-name="Path 4829" class="cls-1" d="M105.962,154.469c.013-3.662.042-7.9-.674-11.118-.385-.606-1.253-.2-1.364-.23-.067-.02-.22-.457-.414-.5-.39-.091-4.869.9-4.869.9a11.331,11.331,0,0,1,.355,1.218c-.288.2-2.685,1.421-2.9,1.689l-3.544,9.832-2.432.355c-.074,1.028.826,2.6,1.584,3.613-.072.816-1.5,6.375-1.373,6.545a.7.7,0,0,0,.417.274c.079-.01.246-.417.32-.464.235-.146.772-.281.8-.323l2.15-5.88,6.121-.646a8.693,8.693,0,0,1,.4,2.533,12.782,12.782,0,0,1-.348,3.618c-.022.121-.183.562-.136.547a8.1,8.1,0,0,0,1.021-.73c.039-.114.044-.634.059-.693.045-.173,2.824-1.867,3.026-2.064a18.582,18.582,0,0,0,.558-2.777,3.538,3.538,0,0,1,2.092-2.029.4.4,0,0,0,.193-.247l.606-3.769Zm-10.281,1.278c-.094,0,.68-1.778,1.406-3.583l2.225-4.693c.072-.161.2-.276.227-.1a25.32,25.32,0,0,1,.532,3.27c.136,1.549.219,3.228.219,4.634Z" transform="translate(61.458 97.268)"/>
        <path id="Path_4830" data-name="Path 4830" class="cls-1" d="M46.536,162.858c.153-.215.23-2.309.669-3.139a3.912,3.912,0,0,1,2.012-1.613,29.245,29.245,0,0,0,.641-3.963l-1.6.373c-.069-3.282.158-6.7-.415-9.941-.064-.353-.247-1.485-.483-1.564-.377-.124-.885.1-1.114.074-.2-.02-.269-.439-.382-.479-.242-.084-4.663.866-4.977.94.044.232.478,1.167.4,1.251a22.654,22.654,0,0,0-2.912,1.633l-3.515,9.882c-.415.071-2.444.242-2.451.321a6.387,6.387,0,0,0,1.613,3.568c-.03.836-1.477,6.471-1.388,6.568a1.141,1.141,0,0,0,.451.315,1.27,1.27,0,0,1,1.12-.8l2.116-5.872,6.15-.685a12.2,12.2,0,0,1-.161,6.723,4.8,4.8,0,0,0,1.066-.767c.057-.1-.022-.508.079-.666.246-.39,2.844-1.818,3.085-2.161m-4.03-7.648-4.552.488,1.231-3.038c.005-.017,1.024-2.269,1.033-2.284l1.51-3.193.458,1.924a28.581,28.581,0,0,1,.32,6.1" transform="translate(22.105 97.259)"/>
        <path id="Path_4831" data-name="Path 4831" class="cls-1" d="M78.042,146.592c-.109.123-.759,1.492-.994,1.9-1.684,2.933-5.443,10.028-8.309,11.764a.743.743,0,0,1-.6.087c-.089-.061-.086-.19-.094-.609a49.311,49.311,0,0,1,1.1-11.172,22.56,22.56,0,0,0,.814-2.217c-.02-.749-.417-2.809-.558-3.616a11.688,11.688,0,0,0-2.42.723c-.447.306-.23.927-.437,1-.483.156-2.457.313-2.7.488-.434,4.076-1.167,9.075-.641,13.433.235,1.954,2.192,3.551,4.69,4.676,1.176.53,5.051.833,5.729.409a26.7,26.7,0,0,0,2.289-3.485c2.172-3.995,4.314-9.32,4.244-14.026a18.575,18.575,0,0,0-2.121.646" transform="translate(42.982 97.347)"/>
        <path id="Path_4832" data-name="Path 4832" class="cls-1" d="M80.779,156.665a17.546,17.546,0,0,0,2.727,1.941,23.57,23.57,0,0,0,3-1.662,52.912,52.912,0,0,1-5.108,9.207,9.1,9.1,0,0,0,2.373.9,50.009,50.009,0,0,0,4.143-4.131c3.423-3.709,6.131-7.568,7.315-12.341a29.149,29.149,0,0,0,.594-3.251c-.008-.1-1.2-1.171-1.218-1.282-.008-.094-.062-2.081-.118-2.156a10.387,10.387,0,0,0-1.393-1.341,27.544,27.544,0,0,1-7.425,12.652c-1.677-2.577-1.768-6.718-1.9-9.921a13.883,13.883,0,0,0-1.837-1.59,16.576,16.576,0,0,0-1.534-1.272c-.114.653-.269,2.178-.35,3.206a44.28,44.28,0,0,0-.077,4.864,36.3,36.3,0,0,0,.8,6.17" transform="translate(54.522 97.139)"/>
        <path id="Path_4833" data-name="Path 4833" class="cls-1" d="M65.983,144.1c-.1-.375.025-1.018-.081-1.189-.488-.775-4.629.955-5.544,1.349-3.894,1.669-7.9,6.033-7.275,9.951.6,3.726,5,3.552,7.7,4.644,1.189.481,1.344.521.1,1.534a9.245,9.245,0,0,1-6.471,2.029c-.3.261,1.283,1.176,1.447,1.275a11.829,11.829,0,0,0,2.259,1.061c.759.168,3.12-.829,4.343-1.32.87-.35,5.041-2.1,5.186-2.859a4.341,4.341,0,0,0-1.137-2.881c-.584-.479-2.981-.945-4.97-1.569-2.528-.791-4.161-1.786-1.921-4.128,1.547-1.618,4.624-2.792,6.742-3.4.333.035.656,3.337,1.324,2.9a44.463,44.463,0,0,0,1.036-5.514c-.045-.16-2.427-.725-2.735-1.879" transform="translate(36.161 97.336)"/>
        <path id="Path_4834" data-name="Path 4834" class="cls-1" d="M53.485,156.634c.774-2.574,1.6-5.2.444-7.795l4.442-.015c-.061-.338.1-.752.025-1.034-.045-.156-.335.056-.506-.079-.577-.454-.674-2.814-1.08-3.3-.283-.345-3.184-1.028-3.976-1.181a18.147,18.147,0,0,0-9.133.153c-.005,1.9-.252,4.762,1.482,5.948a4.028,4.028,0,0,0,3.711.422l-1.235,14.916c-.032.269.385.521.829.74.335-.185.441-1.43.722-1.753a9.966,9.966,0,0,1,1.638-.8c.7-.451,2.277-5.026,2.637-6.222" transform="translate(29.796 97.34)"/>
        <path id="Path_4835" data-name="Path 4835" class="cls-1" d="M81.932,150.477c-.024-.274-.616-.473-1.531-.651a17.552,17.552,0,0,0-5.594.274l-.262,1.759-.008.037-.57,2.415a10.867,10.867,0,0,1,1.862-.747c2.568-.678,4.784-.945,5.579-1.216a2.516,2.516,0,0,0,.526-1.87" transform="translate(50.448 102.113)"/>
      </g>
    </g>
    <g id="Group_14890" data-name="Group 14890" transform="translate(0 -0.001)">
      <g id="Group_14889" data-name="Group 14889" class="cls-2">
        <path id="Path_4836" data-name="Path 4836" class="cls-1" d="M46.629,29.083c.1.232.2.464.309.71-.2.674-.447,1.384-.606,2.1a22.953,22.953,0,0,1,1.891-2.8c.817-.981.765-.609.071,1.186-.222.669-.387,1.189-.5,1.578a3.221,3.221,0,0,0-.118.8c.024.286.249.093.685-.449-.4,1.213-.718,2.461-.883,3.221-.024.489-.049.913-.069,1.339s0,.851,0,1.337l.288-.257a25.869,25.869,0,0,0-.17,5.191c.187-.431.368-.846.6-1.393a25.826,25.826,0,0,1,1.119-5.4c-.015.634-.034,1.188,0,1.743l.168-.479a24.314,24.314,0,0,0-.22,4.7c.034-.463.1-.873.175-1.315.057-.442.158-.913.291-1.492l.646-.254-.057.4c.111-.37.252-.735.4-1.1s.276-.727.451-1.082c-.017.759.135,1.07.309.959a4.761,4.761,0,0,0,.86-1.531,12.589,12.589,0,0,1,1.63-2.642,36.65,36.65,0,0,0,2.1-3.2A27.869,27.869,0,0,1,58.9,27.2a32.606,32.606,0,0,1,6.225-5.014,40.474,40.474,0,0,1,6.218-3.25A29.652,29.652,0,0,1,79.461,16.7a64.938,64.938,0,0,1,6.827-.661c.9-.037,1.775,0,2.711,0l3.15.069c3.788.082,7.566.207,11.381.234l6.615.042c2.372,0,4,.035,5.87.2a44.378,44.378,0,0,1,5.376.885,41.163,41.163,0,0,1,5.142,1.623,33.238,33.238,0,0,1,13.244,9.468,27.615,27.615,0,0,1,4.111,6.646,24.471,24.471,0,0,1,1.182,3.522l.352,2.123.087.542c.029.183.024.442.039.659l.054,1.364c.086,1.8.124,3.7.185,5.49l.072,2.4c3.96.123,8.175.13,12.1.489l.37.045.419.076.3.052.563.1,1.119.246c.375.074.742.188,1.114.288s.74.2,1.105.325a32.067,32.067,0,0,1,8.319,4.022,28.859,28.859,0,0,1,10.805,13.078,23.752,23.752,0,0,1,1.413,5.206c.076.439.1.883.153,1.325s.039.888.071,1.332l.034,3.67q.038,11.836.074,23.683l-.1,31.444q0,8.435-.005,16.879l-.017,10.323q.008,12.83.017,25.66.053,8.77.1,17.534.109,16.057.225,32.11.068,6.305.136,12.6l.081,6.294.007.764-.008.58c.005.389-.008.777-.042,1.162a22.818,22.818,0,0,1-.267,2.32,26.827,26.827,0,0,1-7.71,14.309,32.993,32.993,0,0,1-10.462,6.937,32.443,32.443,0,0,1-5.811,1.823l-.745.138-.619.114c-.294.04-.572.081-.861.113l-3.505.244-3.569.124c-1.157.044-2.353.056-3.477.126-.081,2.992-.14,6.287-.348,9.233-.064.432-.131.861-.2,1.287l-.1.639-.05.32a1.181,1.181,0,0,1-.037.183c-.1.4-.18.794-.286,1.193-.126.4-.235.8-.378,1.206-.16.4-.309.812-.5,1.223a9.068,9.068,0,0,0-.421,1.006l-.363.866a30.091,30.091,0,0,1-2.027,3.194,31.836,31.836,0,0,1-5.11,5.67c-.446.409-1.009.878-1.309,1.176a12.579,12.579,0,0,1-2.955,2.1A70.873,70.873,0,0,1,124.881,320a33.239,33.239,0,0,1-4.358,1.314l-.663-.037a25.836,25.836,0,0,1-6.235.994l.441-.271-.819.037-1.273.034c-.429.013-.833.03-1.341.027l-2.895.018-5.774.052c-1.32.017-2.679.108-3.83.2a43.226,43.226,0,0,1-5.219.018l-5.46-.188c-.634-.039-1.489.013-2.047.032a21.875,21.875,0,0,1-7.6-.955c-1.912-.567-3.6-1.122-5.586-1.766a28.872,28.872,0,0,1-6.957-3.443,34.943,34.943,0,0,1-9.707-9.855,28.274,28.274,0,0,1-2.9-6.055c-.1-.259-.158-.525-.241-.787l-.116-.4-.057-.2-.03-.1-.035-.183-.272-1.472c-.042-.252-.1-.474-.13-.75l-.064-.883c-.188-2.335-.271-4.765-.363-7.036a1.558,1.558,0,0,0-.5-.049l-.54-.01-1.077-.018c-2.264-.042-4.612-.084-6.821-.246a12.768,12.768,0,0,1-1.677-.178l-.848-.118c-.565-.091-1.125-.212-1.69-.313a29.117,29.117,0,0,1-6.5-2.2,35.582,35.582,0,0,1-11.572-8.375,30.525,30.525,0,0,1-6.784-11.956,24.639,24.639,0,0,1-.762-4.41c-.039-.373-.034-.749-.056-1.124l-.024-.564-.005-.663q-.015-1.327-.03-2.648c-.076-4.711-.151-9.4-.225-14.116-.032-4.155-.067-8.341-.1-12.5-.072-4.19-.141-8.356-.21-12.536q-.02-1.423-.039-2.853c-.04-4.289-.077-8.59-.116-12.866-.062-2.725-.124-5.408-.185-8.134-.008-2.224-.013-4.5-.02-6.737-.042-3.406-.1-6.812-.177-10.175-.035-1.477-.143-2.846-.23-4.449l.161-.384c-.019-2.848-.013-5.926-.064-8.957a18.835,18.835,0,0,0-.289-2.3,48.428,48.428,0,0,0,.113-7.243h-.276c.113-.955.187-1.591.267-2.279.007-3.346.007-3.346-.311-4.859-.024.538-.045,1.063-.069,1.613a3.162,3.162,0,0,1-.077-.471c-.108-3.753-.214-7.5-.32-11.271-.024-.92.022-1.949.039-2.927.01-.728.042-1.48.029-2.182-.045-2.133-.093-4.247-.141-6.38-.059-3.384-.119-6.782-.18-10.165-.012-.614-.069-1.172-.1-1.758l-.089.135-.012,4.782-.064.116-.188-3.813-.076.163q.04,8.167.081,16.336c0,.463.064.9.108,1.489.089-.234.165-.434.241-.634l-.1-5.238.1-.15c.071,1.793.141,3.584.225,5.727l-.225-.37-.323,2.235c0,2.214.005,4.491.007,6.769l.025-.061.1,4.3.017.119-.013-.153a18.84,18.84,0,0,0-.022,3.216c-.013,1.621.007,3.268-.059,4.986l.136,2.447c-.049,4.234-.093,8.084-.135,11.912-.032-.592-.086-1.317-.108-2.1-.126-4.385-.323-8.71-.18-13.337.02-.685-.008-1.484-.024-2.214-.131-5.934-.262-11.852-.4-17.8-.067-3.408-.1-6.866-.131-10.313-.007-2.8-.01-5.611-.015-8.414-.007-1.162-.042-2.39-.108-3.433-.05-.806-.163-1.369-.283-2.3-.069,3.793.044,13.014.161,14.472a20.033,20.033,0,0,0,.025,4.844c.007,1.672.01,3.078.017,4.757l-.341-.3c-.012,3.087-.022,6.139-.034,9.588a55.414,55.414,0,0,1-.2-5.643c-.14-1.018-.246-1.778-.35-2.537l-.035-.313-.01-.2.013-.187.01-.13c.019-.715.035-1.428.05-2.079.624-.826.814-4.6.452-8.558-.035-.382-.039-.925-.061-1.394l-.042-.439v-.013l.042.442c.119-2.748.111-2.859-.249-3.458-.027,1.448-.05,2.885-.076,4.321l-.035.471.039-.444c-.13-1.041-.261-1.077-.4-.161-.2,2.711.39,1.934.291,4.183-.333.461-.367.674-.333,3.258.045,2.567.091,5.108.138,7.675.024,1.638,0,3.309,0,4.964l-.1.091c-.044-1.292-.108-2.565-.13-3.88q-.156-10.158-.308-20.334c-.007-2.14-.012-4.341-.019-6.472-.052-3.226-.146-6.41-.3-9.68-.029.821-.057,1.642-.089,2.518a7.183,7.183,0,0,1-.072-1.7c-.01-1.262,0-3.278.034-6.244l.066,3.462.1-.069c.13-4.713.045-9.339-.116-14.011l-.188.131c-.093-1.534-.077-3.261-.082-4.923.029-1.754.106-3.433.167-4.775l-.138.124c-.158.94-.215,1.9-.3,2.846-.027.952-.061,1.929-.045,2.8L6,84.316l.029,10.733-.069.027c-.019-1.739-.039-3.477-.064-5.788-.118,1.038-.183,1.63-.249,2.2-.044-.278-.074-.473-.106-.669a19.089,19.089,0,0,0,.17,4.133,27,27,0,0,0-.2,5.29c.037,1.2.188,2.205.288,3.3l.008-.118-.013.1c.034.691.064,1.383.126,2.792-.148-.883-.234-1.386-.32-1.9a2.146,2.146,0,0,0-.042.345c-.017,5.857-.241,11.714,0,17.579.024.607.029,1.288.025,1.934l-.029,12.19a7.013,7.013,0,0,1-.138,1.389v-1.9c.01-2.037.056-4.1.029-6.107q-.129-8.518-.261-17.012c-.034-2.357-.067-4.723-.1-7.075-.008-.463-.067-.871-.108-1.4a6.413,6.413,0,0,0-.1.737q.008,3.515.015,7.026c.027,4.225.061,8.444.029,12.681-.1-2.365-.2-4.733-.315-7.44a65.59,65.59,0,0,0,.066-7.342c-.039-.779-.03-1.709-.039-2.575L4.509,89.416q-.066-5.354-.121-10.691c-.02-1.028-.034-2.029-.05-3.028-.082.451-.106.9-.153,1.337s-.077.92-.086,1.3c-.03.814-.037,1.682-.024,2.7.042,6.442.086,12.937.126,19.407.034,4.959.064,9.939.148,14.854.061,3.621.076,7.093-.094,10.572-.114-2.1-.1-4.565-.365-6.264-.089-.575-.061-2.437-.056-3.7.027-2.04.05-4.071.074-6.109,0-.977-.052-1.968-.079-2.952l-.106-.22c-.061.68-.167,1.325-.177,2.045-.02,1.6-.035,3.349.027,4.826.133,3.135.1,6.276.1,9.458l.087,12.464c.01,1.933.02,3.874.03,5.8q.056,6.083.113,12.161c.01,1.7-.045,3.42-.071,5.129v-.019c-.052-1.218-.135-2.409-.153-3.658-.118-7.707-.266-15.386-.264-23.189,0-4.957-.133-9.789-.278-15.162a50.076,50.076,0,0,0-.087-6.434c0-2.925-.008-5.167-.012-7.381-.054-3.179-.1-6.335-.156-9.51-.019-1.154-.067-1.838-.222-1.879l.013,1.334.108,5.12-.067.052-.173-2.5-.012.146.013-.124.141-2.7-.013-1.292a40.378,40.378,0,0,1,.082-6.567c-.024-2.251-.045-4.39-.071-6.888l-.673-.045c.052-.587.119-1.337.19-2.148.1-.794.114-1.69.363-3.223-.091,1.056-.119,1.608-.121,2.151A50.548,50.548,0,0,1,6.923,60.164L5.9,61.743A43.309,43.309,0,0,1,19.166,45.93a47.459,47.459,0,0,1,18.376-8.3l-.037-.1A45.517,45.517,0,0,0,6.882,59.166a39.646,39.646,0,0,0-4.039,9.5,20.58,20.58,0,0,0-.537,2.269A39.276,39.276,0,0,0,1.718,77.5q0,2.78,0,5.571c0,3.667-.02,7.34.032,10.99.061,4.259-.034,8.637-.012,12.948.045,4.619.089,9.221.135,13.838q.013,11.318.02,22.652v6.042l-.109.029q-.265-32.144-.526-64.3c-.2-.764-.271.049-.276,1.329C.99,88.442,1,90.286,1,92.124c.012,1.288.029,2.575.042,3.862l-.089.59-.1-2.2-.131.666c.1,3.9.242,7.694.178,11.788-.061,3.855.024,7.843.032,11.774q.013,5.957-.045,11.929c-.172-8-.119-16.185-.352-24.607C.771,103,.558,99.466.558,95.764A17.966,17.966,0,0,0,.125,101.7c.143,3.23.035,6.272.057,9.389.013,2.234.045,4.432.212,5.879.007,2.969.01,5.635.019,8.272C.432,126.9.4,128.108.3,129.7c-.121,1.96-.094,4.6-.084,6.928q.048,5.6.1,11.187L.226,165.153V179c.03,2.575.056,5.145.089,8.277a52.412,52.412,0,0,0-.1,6.819c.024.664.013,1.415.022,2.124.013,1.3.03,2.6.044,3.8q-.048,3.9-.091,7.727c-.126,7.993-.054,16.067-.155,24.058-.079,6.279,0,12.481.047,18.716.019,2.431-.005,4.885-.013,7.329v.927l.008.39.04,1.564c.067,1.038.14,2.082.288,3.112a38.8,38.8,0,0,0,1.312,6.074,41.985,41.985,0,0,0,2.227,5.734,43.914,43.914,0,0,0,3.019,5.268,45.927,45.927,0,0,0,10.21,10.775,43.3,43.3,0,0,0,8.215,5.083,56.824,56.824,0,0,0,6.769,2.678c.57.2,1.151.363,1.734.523s1.164.331,1.758.459,1.182.281,1.785.385l.9.155.227.037-.042-.01h.019a2.171,2.171,0,0,1,.378.022,1.606,1.606,0,0,0,0,.22,1.172,1.172,0,0,0,.019.131l.057.271.03.135.013.067.032.123a41.361,41.361,0,0,0,8.155,15.944,48.958,48.958,0,0,0,17.268,13.347,52.9,52.9,0,0,0,15.789,4.553l2.034.225,2.035.14c.68.056,1.356.057,2.034.071s1.391.03,1.939.022l7.056-.025,13.3-.005h2.494l.947-.018,1.891-.042,1.894-.121a57.237,57.237,0,0,0,7.557-1.055,56.439,56.439,0,0,0,12.8-4.286c1.976-.955,3.877-1.887,5.741-3.026.409-.234.828-.55,1.426-.95l.451-.624c2.05-1.494,3.7-2.829,4.9-3.557a46.706,46.706,0,0,1-13.557,9.223,55.025,55.025,0,0,1-15.066,4.52l-.062.1c.378-.034.767-.049,1.142-.108a54.207,54.207,0,0,0,21.934-8.738,47.389,47.389,0,0,0,12.7-12.752,40.27,40.27,0,0,0,5.615-12.684l.03-.116.005-.03.012-.057.024-.114.047-.232c.012-.071,0-.024,0-.042l-.008-.02.015-.012c-.017,0,.05-.015-.03,0,.838-.141,1.672-.294,2.5-.493a47.621,47.621,0,0,0,9.566-3.251,48.878,48.878,0,0,0,15.4-11.238,43.157,43.157,0,0,0,9.621-16.95,39.558,39.558,0,0,0,1.3-6.752l.141-1.721.047-1.727c.017-.631,0-1.019,0-1.484l-.01-1.357q-.035-5.427-.071-10.858-.035-14.119-.069-28.248.005-9.484.012-18.972c-.02-6.419.079-12.863.027-19.207-.059-7.451.187-14.736.079-22.163-.035-2.464.118-5.1.074-7.549-.04-2.388-.054-4.664,0-7,.039-1.574.077-3.142.114-4.713,0-.212.013-.479,0-.643-.193-2.875.01-5.655.025-8.481q.01-6.9.019-13.81l.027-6.779-.027-5.068c0-.738-.03-1.559,0-2.205.212-4.407.1-8.92.093-13.408q.015-2.879.03-5.763V77.956l-.045-1.584a37.085,37.085,0,0,0-.8-6.267,40.46,40.46,0,0,0-4.409-11.6A46.638,46.638,0,0,0,182.9,44.467c-.738-.542-1.475-1.092-2.239-1.591a49.3,49.3,0,0,0-9.535-4.944A47.377,47.377,0,0,0,166,36.289c-.865-.247-1.753-.421-2.632-.614-.772-.167-2.2-.385-1.783-.313-.032,0-.077.013-.118.015l-.013-.05c-.015-.057.013.1-.077-.313l-.049-.215-.22-.816c-.163-.565-.3-1.142-.5-1.692s-.365-1.112-.569-1.655l-.648-1.615A43.162,43.162,0,0,0,152.177,17.6,51.7,51.7,0,0,0,120.968.677c-.765-.136-1.536-.21-2.306-.3s-1.541-.161-2.313-.209-1.542-.111-2.313-.121l-1.156-.03L112.306,0h-8.454c-1.613.005-3.273.1-4.789.192L93.837.505l-2.71.128L88.163.721A54.5,54.5,0,0,0,78.421,1.8a43.4,43.4,0,0,0-4.19,1.137c.9.007,1.591,0,2.5.056-.7.183-1.339.41-1.99.632s-1.31.429-2.023.685a52.741,52.741,0,0,0-9.266,4.079,48.5,48.5,0,0,0-8.36,6.072,29.46,29.46,0,0,0-5.367,6.04,33.642,33.642,0,0,0-3.095,6.652c-.1.284-.081.447.035.348.53-.432.2.646-.064,1.633ZM4.911,127.7l.007-.151-.01.131-.012.106Zm.949-26.815.1-.444.015.5-.116-.076-.01.136Zm4.584,74.662c.034.923.071,1.847.13,3.415a12.12,12.12,0,0,1-.123-3.4l-.057-2.616a8.641,8.641,0,0,1,.05,2.6m-.017-17c-.042.94-.084,1.879-.13,2.949-.047-4.249-.091-8.2-.135-12.149.119,2.7.019,5.764.323,8.015.013.109-.039.8-.064,1.221ZM5.3,63.3c-1.211,2.351-1.768,5.4-2.552,7.769A26.782,26.782,0,0,1,5.3,63.3M.887,143.726l.1-.013L1,150.187l-.042-.015ZM9.9,122.9l-.067-.019-.052-4.642L9.9,118.2Zm-.069,51.7-.091.192a13.689,13.689,0,0,1,0-3.46c.032,1.142.061,2.2.091,3.268m.148-39.96.1.072-.005,3.983-.054.015ZM6.8,135.822l.1-.172.042,3.655-.044.02Zm-.128-19.564c-.008-.569-.017-1.547-.03-2.526l.059.04c-.012,1.018-.024,2.037-.029,2.486M8.6,144.13l-.062.824-.23-1.077.062-.774Zm1.924,26.929-.1.387-.084-1.877.086-.272Zm-7.655-57.3-.042.02c-.012-.389-.027-.779-.025-1.164.01-.429.02-.856.037-1.574.01,1.14.022,1.929.03,2.718m7.5,51.918h-.082l.013-1.759.05.008ZM8.152,146.5c.23-.02.23-.02.167,1.186-.04-.294-.079-.563-.167-1.186m.426-12.869-.064-.061.019-1.3.064.067ZM6.494,90.585l-.049-.062-.022-2.04.029-.029Zm1.852,59.125.034-.1.057,1-.05.158ZM2.561,80.037c.012.155.039.306.04.471a3.14,3.14,0,0,1-.044.378,4.093,4.093,0,0,1-.042-.468,2.919,2.919,0,0,1,.045-.382M1.192,132.92l.076.156-.056.616Zm7.2,7.786.034.135c-.012.143-.025.291-.037.422a.64.64,0,0,1-.03-.124Zm-7.478-3.3-.017.02-.019-.843.022-.022ZM3.291,159.2l-.061-.158.037-.772.035.044ZM6.024,98.24a1.045,1.045,0,0,1,.022.123c-.007.119-.012.232-.019.348Zm4.1,47.465c.02.229.029.338.039.446-.01,0-.03.032-.03.008,0-.093,0-.2-.008-.454m1,28.026.02-.03-.007.2Z" transform="translate(0.001 0.004)"/>
        <path id="Path_4837" data-name="Path 4837" class="cls-1" d="M20.551,28.473a35.781,35.781,0,0,0-5.241,3.985,39.373,39.373,0,0,0-6.129,7.1,35.454,35.454,0,0,0-4.012,8.069,27.9,27.9,0,0,0-1.253,5.292c.153-.587.286-1.1.4-1.553s.266-.86.368-1.267a34.6,34.6,0,0,1,3.539-8.467,39.781,39.781,0,0,1,2.254-3.4,41.272,41.272,0,0,1,9.036-8.959c.311-.239.59-.469,1.034-.8" transform="translate(2.671 19.421)"/>
        <path id="Path_4838" data-name="Path 4838" class="cls-1" d="M12.319,31.64c-.464.5-.944.986-1.393,1.51a38.219,38.219,0,0,0-3.734,5.27A35.1,35.1,0,0,0,4.348,44.54a33.738,33.738,0,0,0-1.729,7.28c-.057.429,0,.747.15.831a37.052,37.052,0,0,1,9.137-20.324Z" transform="translate(1.771 21.581)"/>
        <path id="Path_4839" data-name="Path 4839" class="cls-1" d="M2.353,60.944c-.035-3.231-.071-6.372-.106-9.467a45.007,45.007,0,0,1,.138-5.063c.061-.878.217-1.741.335-2.609.18-.856.309-1.724.547-2.565l-.081-.066a34.1,34.1,0,0,0-1.154,7.838c-.04,1.016-.024,1.754-.029,2.607V54.1l.005,4.974c0,1.5.077,2.432.345,1.864" transform="translate(1.366 28.085)"/>
        <path id="Path_4840" data-name="Path 4840" class="cls-1" d="M4.472,67.49c.029-.525.086-1.073.079-1.569C4.483,60.756,4.5,55.513,4.351,50c-.193,2.235-.151,10.154.119,17.49" transform="translate(2.886 34.102)"/>
        <path id="Path_4841" data-name="Path 4841" class="cls-1" d="M2.316,67.474c-.049-4.136.151-8.42-.2-12.408l-.042,9.9c0,.913.087,1.825.135,2.74Z" transform="translate(1.418 37.559)"/>
        <path id="Path_4842" data-name="Path 4842" class="cls-1" d="M4.445,71.678c.215-3.4.136-6.812.019-10.228a102.162,102.162,0,0,0-.019,10.228" transform="translate(2.95 41.913)"/>
        <path id="Path_4843" data-name="Path 4843" class="cls-1" d="M11.076,33.662A37.345,37.345,0,0,0,7.984,37.98,34.027,34.027,0,0,0,5.656,42.7l.141-.019a37.977,37.977,0,0,1,2.368-4.695,41.117,41.117,0,0,1,3.029-4.3Z" transform="translate(3.858 22.96)"/>
        <path id="Path_4844" data-name="Path 4844" class="cls-1" d="M3.051,62.4l-.106-9.758-.087.029c-.024,3.278,0,6.546.034,9.811Z" transform="translate(1.943 35.908)"/>
        <path id="Path_4845" data-name="Path 4845" class="cls-1" d="M6.713,33.326a66.409,66.409,0,0,1,6.779-6.139l-.012-.123-1.722,1.362c-.553.481-1.117.952-1.658,1.447a45.864,45.864,0,0,0-3.386,3.453" transform="translate(4.579 18.46)"/>
        <path id="Path_4846" data-name="Path 4846" class="cls-1" d="M6.289,84.627c.15.93.246,1.534.415,2.592-.049-2.04-.081-3.32-.124-5.08-.108.927-.182,1.549-.291,2.488" transform="translate(4.289 56.024)"/>
        <path id="Path_4847" data-name="Path 4847" class="cls-1" d="M11.875,32.05c1.584-1.1,3.088-2.235,4.723-3.445a23.119,23.119,0,0,0-4.737,3.462Z" transform="translate(8.09 19.511)"/>
        <path id="Path_4848" data-name="Path 4848" class="cls-1" d="M.819,49.125.794,48.047.8,46.757c-.007-.886.061-1.766.126-2.648l-.119.177c-.042.458-.084.927-.126,1.4-.019.473-.04.947-.059,1.413,0,.232-.008.463-.013.691s.007.378.015.565A9.786,9.786,0,0,0,.718,49.37Z" transform="translate(0.414 30.086)"/>
        <path id="Path_4849" data-name="Path 4849" class="cls-1" d="M.118,57.106l.362.018c-.066-.981-.119-1.79-.173-2.6l-.1.081-.084,2.53Z" transform="translate(0.08 37.191)"/>
        <path id="Path_4850" data-name="Path 4850" class="cls-1" d="M4.181,46.262c.013,1.33.027,2.663.045,4.454a14.54,14.54,0,0,0-.045-4.454" transform="translate(2.852 31.554)"/>
        <path id="Path_4851" data-name="Path 4851" class="cls-1" d="M22.051,25.972a40.466,40.466,0,0,0-4.7,1.894c1.558-.7,3.209-1.162,4.7-1.894" transform="translate(11.831 17.716)"/>
        <path id="Path_4852" data-name="Path 4852" class="cls-1" d="M14.975,28.966A43.646,43.646,0,0,1,20.929,26l-.04-.042a43.394,43.394,0,0,0-5.916,2.952Z" transform="translate(10.212 17.705)"/>
        <path id="Path_4853" data-name="Path 4853" class="cls-1" d="M14.4,26.229a15.606,15.606,0,0,0,3.7-1.791c-1.393.612-2.306,1.05-3.7,1.791" transform="translate(9.819 16.669)"/>
        <path id="Path_4854" data-name="Path 4854" class="cls-1" d="M13.272,30.667A39.9,39.9,0,0,0,9.854,33.8l-.059.214c.347-.318.745-.646,1.026-.949l1.218-1.231c.405-.4.828-.786,1.246-1.181Z" transform="translate(6.681 20.909)"/>
        <path id="Path_4855" data-name="Path 4855" class="cls-1" d="M14.24,26.657A45.833,45.833,0,0,0,10.1,29.712c.616-.424.939-.614,1.442-1.014.249-.2.553-.442.984-.764s.957-.76,1.711-1.277" transform="translate(6.891 18.183)"/>
        <path id="Path_4856" data-name="Path 4856" class="cls-1" d="M3.407,50.408,3.435,53l.108-.047-.012-2.666Z" transform="translate(2.323 34.299)"/>
        <path id="Path_4857" data-name="Path 4857" class="cls-1" d="M.792,50.514.747,48.135l-.138.17.054,2.368Z" transform="translate(0.415 32.832)"/>
        <path id="Path_4858" data-name="Path 4858" class="cls-1" d="M14.752,24.948c-.691.407-1.4.792-2.183,1.293a7.623,7.623,0,0,0,2.183-1.293" transform="translate(8.573 17.017)"/>
        <path id="Path_4859" data-name="Path 4859" class="cls-1" d="M5.078,60.254,5.121,64.2l.056-.01-.044-3.914Z" transform="translate(3.463 41.097)"/>
        <path id="Path_4860" data-name="Path 4860" class="cls-1" d="M25.672,24.963c.908-.082,1.822-.072,2.732-.1l.052-.056c-.893.015-1.788-.013-2.679.057Z" transform="translate(17.509 16.922)"/>
        <path id="Path_4861" data-name="Path 4861" class="cls-1" d="M8.573,32.436c-.451.5-.844,1.053-1.267,1.581l.05.064c.451-.548.881-1.119,1.362-1.638Z" transform="translate(4.983 22.124)"/>
        <path id="Path_4862" data-name="Path 4862" class="cls-1" d="M1.108,43.131c.18-.737.358-1.472.594-2.188l.034-.373a6.836,6.836,0,0,0-.306.777c-.16.5-.242,1.1-.36,1.657Z" transform="translate(0.729 27.671)"/>
        <path id="Path_4863" data-name="Path 4863" class="cls-1" d="M4.731,50.742l-.091-.634c-.022.209-.052.4-.066.637a2,2,0,0,0,.045.412,2.7,2.7,0,0,0,.111-.415" transform="translate(3.12 34.177)"/>
        <path id="Path_4864" data-name="Path 4864" class="cls-1" d="M2.953,59.671c-.025.434-.057.738-.05.928a.886.886,0,0,0,.091.375,3.335,3.335,0,0,0,.037-.5c-.01-.244-.04-.437-.077-.8" transform="translate(1.979 40.7)"/>
        <path id="Path_4865" data-name="Path 4865" class="cls-1" d="M4.533,70.005,4.469,68.4l-.077.2.071,1.591Z" transform="translate(2.995 46.652)"/>
        <path id="Path_4866" data-name="Path 4866" class="cls-1" d="M22.825,25.415c-.39.061-.664.084-.886.141a4.211,4.211,0,0,0-.525.219c.234-.037.466-.069.7-.119.2-.045.4-.135.71-.241" transform="translate(14.605 17.336)"/>
        <path id="Path_4867" data-name="Path 4867" class="cls-1" d="M70.41,191.239c-.347.044-.7.05-1.051.079l-.126.124c.368-.042.74-.071,1.107-.121Z" transform="translate(47.22 130.434)"/>
        <path id="Path_4868" data-name="Path 4868" class="cls-1" d="M4.478,43.863c-.135.643-.187,1.3-.274,1.949l.061.172c.089-.654.133-1.312.262-1.96Z" transform="translate(2.867 29.918)"/>
        <path id="Path_4869" data-name="Path 4869" class="cls-1" d="M4.881,35.247c.394-.6.76-1.228,1.188-1.808l-.074.007c-.426.58-.792,1.208-1.186,1.81Z" transform="translate(3.28 22.808)"/>
        <path id="Path_4870" data-name="Path 4870" class="cls-1" d="M.436,51.969l-.012,1.06.052.039L.49,52.009Z" transform="translate(0.289 35.447)"/>
        <path id="Path_4871" data-name="Path 4871" class="cls-1" d="M4.265,34.564l-.454.59-.234.486.466-.611Z" transform="translate(2.44 23.576)"/>
        <path id="Path_4872" data-name="Path 4872" class="cls-1" d="M4.867,41.814c-.1.326-.187.658-.257.992l.045.086c.074-.333.15-.668.251-1Z" transform="translate(3.144 28.52)"/>
        <path id="Path_4873" data-name="Path 4873" class="cls-1" d="M5.363,40.225,5.047,41a1.571,1.571,0,0,0-.032.183l.3-.644Z" transform="translate(3.42 27.437)"/>
        <path id="Path_4874" data-name="Path 4874" class="cls-1" d="M2.948,36.868c.039-.124.071-.246.113-.362-.094.158-.175.316-.264.489a1.388,1.388,0,0,0-.072.219l.222-.346" transform="translate(1.858 24.9)"/>
        <path id="Path_4875" data-name="Path 4875" class="cls-1" d="M2.806,47.652l.007,1.235.059-.013V47.641Z" transform="translate(1.913 32.494)"/>
        <path id="Path_4876" data-name="Path 4876" class="cls-1" d="M2.108,38.737c.034-.069.1-.19.1-.2.035-.13.067-.254.1-.36,0-.013-.062.116-.1.18Z" transform="translate(1.438 26.039)"/>
        <path id="Path_4877" data-name="Path 4877" class="cls-1" d="M4.64,59.056l-.008.261.029-.049Z" transform="translate(3.159 40.28)"/>
        <path id="Path_4878" data-name="Path 4878" class="cls-1" d="M3.421,46.951l.007-.22-.025.05Z" transform="translate(2.32 31.874)"/>
        <path id="Path_4879" data-name="Path 4879" class="cls-1" d="M3.235,42.157l-.025.2.057-.237Z" transform="translate(2.189 28.729)"/>
        <path id="Path_4880" data-name="Path 4880" class="cls-1" d="M2.836,50l.013.225.03-.293-.027-.156Z" transform="translate(1.935 33.953)"/>
        <path id="Path_4881" data-name="Path 4881" class="cls-1" d="M2.872,51.777a.41.41,0,0,0,.025-.1,1.58,1.58,0,0,0-.013-.235c0-.022-.019.061-.029.094Z" transform="translate(1.947 35.085)"/>
        <path id="Path_4882" data-name="Path 4882" class="cls-1" d="M.127,56.087.11,56.2l.013-.141Z" transform="translate(0.075 38.237)"/>
        <path id="Path_4883" data-name="Path 4883" class="cls-1" d="M4.6,78.3l-.02-.828-.01.131v.385Z" transform="translate(3.116 52.842)"/>
        <path id="Path_4884" data-name="Path 4884" class="cls-1" d="M27.719,17.335l-.032.109.061-.153Z" transform="translate(18.884 11.795)"/>
        <path id="Path_4885" data-name="Path 4885" class="cls-1" d="M6.2,94.342l-.019-.15.022.114Z" transform="translate(4.218 64.245)"/>
      </g>
    </g>
    <g id="Group_14892" data-name="Group 14892" transform="translate(0 0.001)">
      <g id="Group_14891" data-name="Group 14891" class="cls-2">
        <path id="Path_4886" data-name="Path 4886" class="cls-1" d="M115.348,192.514v2.148h-3.63v9.986h-2.552v-9.986H105.52v-2.148Z" transform="translate(71.968 131.302)"/>
        <path id="Path_4887" data-name="Path 4887" class="cls-1" d="M114.581,204.648h-2.363V192.514h3.689l2.207,9.541,2.188-9.541h3.647v12.134h-2.362v-8.207c0-.237,0-.567.008-.992s.01-.754.01-.984l-2.3,10.183h-2.461l-2.281-10.183c0,.23,0,.558.008.984s.008.755.008.992Z" transform="translate(76.537 131.302)"/>
      </g>
    </g>
  </g>
</svg>
